<?xml version="1.0" encoding="UTF-8" standalone="no"?>
<!DOCTYPE svg PUBLIC "-//W3C//DTD SVG 1.1//EN" "http://www.w3.org/Graphics/SVG/1.1/DTD/svg11.dtd">
<svg width="100%" height="100%" viewBox="0 0 1084 334" version="1.1" xmlns="http://www.w3.org/2000/svg" xmlns:xlink="http://www.w3.org/1999/xlink" xml:space="preserve" xmlns:serif="http://www.serif.com/" style="fill-rule:evenodd;clip-rule:evenodd;stroke-linejoin:round;stroke-miterlimit:2;"><g id="Ebene-1" serif:id="Ebene 1"><g><path d="M394.053,187.164c0,-1.805 -0.634,-3.234 -1.902,-4.286c-1.268,-1.052 -3.588,-2.051 -6.96,-2.999c-3.372,-0.947 -5.834,-1.98 -7.386,-3.099c-2.208,-1.582 -3.312,-3.655 -3.312,-6.222c0,-2.491 1.026,-4.517 3.077,-6.076c2.052,-1.559 4.674,-2.338 7.867,-2.338c2.163,-0 4.099,0.417 5.807,1.253c1.709,0.835 3.033,1.999 3.973,3.491c0.94,1.492 1.41,3.156 1.41,4.991l-2.775,-0c-0,-2.223 -0.761,-4.01 -2.283,-5.36c-1.522,-1.35 -3.566,-2.025 -6.132,-2.025c-2.492,-0 -4.476,0.555 -5.953,1.667c-1.477,1.111 -2.216,2.562 -2.216,4.353c0,1.656 0.664,3.006 1.992,4.05c1.328,1.045 3.454,1.966 6.378,2.764c2.925,0.798 5.14,1.626 6.647,2.484c1.507,0.858 2.641,1.884 3.402,3.077c0.761,1.194 1.141,2.604 1.141,4.23c0,2.566 -1.026,4.625 -3.077,6.177c-2.052,1.552 -4.756,2.327 -8.113,2.327c-2.297,0 -4.405,-0.41 -6.322,-1.23c-1.917,-0.821 -3.372,-1.97 -4.364,-3.447c-0.992,-1.477 -1.488,-3.17 -1.488,-5.08l2.753,-0c-0,2.298 0.857,4.11 2.573,5.438c1.716,1.328 3.999,1.992 6.848,1.992c2.537,-0 4.573,-0.559 6.11,-1.678c1.537,-1.119 2.305,-2.604 2.305,-4.454Z" style="fill-rule:nonzero;"/><path d="M412.23,193.363c1.865,0 3.427,-0.526 4.688,-1.578c1.261,-1.051 1.944,-2.413 2.048,-4.084l2.574,0c-0.075,1.477 -0.538,2.824 -1.388,4.04c-0.85,1.216 -1.981,2.167 -3.39,2.853c-1.41,0.686 -2.921,1.029 -4.532,1.029c-3.178,0 -5.696,-1.104 -7.553,-3.312c-1.858,-2.208 -2.787,-5.177 -2.787,-8.907l0,-0.805c0,-2.388 0.418,-4.499 1.254,-6.334c0.835,-1.835 2.032,-3.252 3.592,-4.252c1.559,-1 3.383,-1.499 5.471,-1.499c2.656,-0 4.845,0.79 6.569,2.372c1.723,1.581 2.644,3.663 2.764,6.244l-2.574,-0c-0.119,-1.895 -0.802,-3.424 -2.048,-4.588c-1.246,-1.164 -2.816,-1.746 -4.711,-1.746c-2.417,0 -4.293,0.873 -5.628,2.619c-1.335,1.745 -2.003,4.192 -2.003,7.34l-0,0.784c-0,3.088 0.668,5.497 2.003,7.228c1.335,1.731 3.219,2.596 5.651,2.596Z" style="fill-rule:nonzero;"/><path d="M430.697,175.057c0.881,-1.448 2.007,-2.567 3.38,-3.357c1.372,-0.791 2.872,-1.186 4.498,-1.186c2.596,-0 4.528,0.731 5.796,2.193c1.268,1.462 1.91,3.655 1.925,6.579l-0,15.89l-2.663,-0l-0,-15.912c-0.015,-2.163 -0.474,-3.775 -1.377,-4.834c-0.902,-1.059 -2.346,-1.589 -4.33,-1.589c-1.656,0 -3.122,0.519 -4.398,1.555c-1.275,1.037 -2.219,2.436 -2.831,4.197l0,16.583l-2.663,-0l0,-34.375l2.663,-0l0,14.256Z" style="fill-rule:nonzero;"/><path d="M460.131,189.603l0.403,2.082l0.537,-2.194l5.819,-18.53l2.282,0l5.752,18.374l0.626,2.551l0.515,-2.35l4.968,-18.575l2.775,0l-7.049,24.215l-2.283,-0l-6.221,-19.202l-0.291,-1.32l-0.291,1.343l-6.11,19.179l-2.283,-0l-7.027,-24.215l2.753,0l5.125,18.642Z" style="fill-rule:nonzero;"/><path d="M499.411,195.623c-2.058,0 -3.92,-0.507 -5.583,-1.521c-1.664,-1.015 -2.958,-2.429 -3.883,-4.241c-0.925,-1.813 -1.388,-3.846 -1.388,-6.099l0,-0.962c0,-2.327 0.452,-4.424 1.354,-6.289c0.903,-1.865 2.16,-3.331 3.771,-4.397c1.612,-1.067 3.357,-1.6 5.237,-1.6c2.939,-0 5.271,1.003 6.994,3.01c1.723,2.006 2.585,4.748 2.585,8.224l-0,1.5l-17.277,-0l-0,0.514c-0,2.746 0.787,5.032 2.361,6.86c1.574,1.827 3.554,2.741 5.941,2.741c1.433,0 2.697,-0.261 3.794,-0.783c1.096,-0.522 2.092,-1.358 2.987,-2.507l1.679,1.276c-1.97,2.85 -4.827,4.274 -8.572,4.274Zm-0.492,-22.827c-2.014,0 -3.711,0.739 -5.091,2.216c-1.38,1.477 -2.22,3.461 -2.518,5.953l14.524,-0l0,-0.291c-0.074,-2.328 -0.738,-4.222 -1.991,-5.684c-1.254,-1.463 -2.895,-2.194 -4.924,-2.194Z" style="fill-rule:nonzero;"/><path d="M517.857,195.176l-2.686,-0l0,-24.215l2.686,0l-0,24.215Zm-3.156,-31.22c0,-0.507 0.164,-0.936 0.493,-1.286c0.328,-0.351 0.775,-0.526 1.342,-0.526c0.567,-0 1.019,0.175 1.354,0.526c0.336,0.35 0.504,0.779 0.504,1.286c-0,0.508 -0.168,0.933 -0.504,1.276c-0.335,0.343 -0.787,0.515 -1.354,0.515c-0.567,-0 -1.014,-0.172 -1.342,-0.515c-0.329,-0.343 -0.493,-0.768 -0.493,-1.276Z" style="fill-rule:nonzero;"/><path d="M528.044,192.916l15.733,-0l-0,2.26l-19.045,-0l-0,-1.97l14.681,-19.94l-14.234,0l0,-2.305l17.613,0l0,1.992l-14.748,19.963Z" style="fill-rule:nonzero;"/><path d="M559.089,195.623c-2.059,0 -3.92,-0.507 -5.584,-1.521c-1.663,-1.015 -2.958,-2.429 -3.883,-4.241c-0.925,-1.813 -1.387,-3.846 -1.387,-6.099l-0,-0.962c-0,-2.327 0.451,-4.424 1.354,-6.289c0.902,-1.865 2.159,-3.331 3.771,-4.397c1.611,-1.067 3.357,-1.6 5.236,-1.6c2.94,-0 5.271,1.003 6.994,3.01c1.723,2.006 2.585,4.748 2.585,8.224l-0,1.5l-17.277,-0l-0,0.514c-0,2.746 0.787,5.032 2.361,6.86c1.574,1.827 3.555,2.741 5.942,2.741c1.432,0 2.696,-0.261 3.793,-0.783c1.097,-0.522 2.093,-1.358 2.988,-2.507l1.678,1.276c-1.969,2.85 -4.826,4.274 -8.571,4.274Zm-0.493,-22.827c-2.014,0 -3.711,0.739 -5.091,2.216c-1.38,1.477 -2.219,3.461 -2.518,5.953l14.525,-0l-0,-0.291c-0.075,-2.328 -0.739,-4.222 -1.992,-5.684c-1.253,-1.463 -2.894,-2.194 -4.924,-2.194Z" style="fill-rule:nonzero;"/><path d="M585.725,173.244c-0.567,-0.105 -1.171,-0.157 -1.813,-0.157c-1.671,0 -3.084,0.466 -4.241,1.399c-1.156,0.932 -1.98,2.286 -2.473,4.062l0,16.628l-2.663,-0l0,-24.215l2.619,0l0.044,3.849c1.418,-2.864 3.693,-4.296 6.826,-4.296c0.746,-0 1.335,0.097 1.768,0.291l-0.067,2.439Z" style="fill-rule:nonzero;"/><path d="M604.018,195.176l0,-32.585l9.623,0c3.491,0 6.14,0.72 7.945,2.16c1.805,1.44 2.708,3.562 2.708,6.367c-0,1.686 -0.459,3.152 -1.376,4.397c-0.918,1.246 -2.175,2.138 -3.771,2.675c1.894,0.418 3.42,1.35 4.576,2.797c1.156,1.447 1.735,3.118 1.735,5.013c-0,2.88 -0.929,5.129 -2.787,6.748c-1.857,1.618 -4.442,2.428 -7.754,2.428l-10.899,-0Zm2.753,-15.666l-0,13.338l8.258,0c2.357,0 4.226,-0.6 5.606,-1.801c1.38,-1.201 2.07,-2.868 2.07,-5.002c-0,-2.014 -0.66,-3.607 -1.981,-4.778c-1.32,-1.171 -3.144,-1.757 -5.471,-1.757l-8.482,0Zm-0,-2.305l7.519,0c2.298,-0.045 4.077,-0.586 5.338,-1.622c1.26,-1.037 1.891,-2.548 1.891,-4.532c-0,-2.089 -0.653,-3.63 -1.958,-4.622c-1.306,-0.992 -3.279,-1.488 -5.92,-1.488l-6.87,0l-0,12.264Z" style="fill-rule:nonzero;"/><rect x="632.937" y="160.801" width="2.686" height="34.375" style="fill-rule:nonzero;"/><path d="M659.327,195.176c-0.269,-0.761 -0.44,-1.887 -0.515,-3.379c-0.94,1.223 -2.137,2.167 -3.592,2.831c-1.454,0.664 -2.995,0.995 -4.621,0.995c-2.328,0 -4.211,-0.649 -5.651,-1.947c-1.44,-1.298 -2.16,-2.939 -2.16,-4.923c0,-2.357 0.981,-4.222 2.943,-5.595c1.962,-1.373 4.696,-2.059 8.202,-2.059l4.857,0l-0,-2.753c-0,-1.73 -0.534,-3.092 -1.6,-4.084c-1.067,-0.992 -2.623,-1.488 -4.667,-1.488c-1.864,-0 -3.409,0.477 -4.632,1.432c-1.224,0.955 -1.835,2.104 -1.835,3.447l-2.686,-0.023c0,-1.924 0.895,-3.592 2.686,-5.002c1.79,-1.409 3.991,-2.114 6.602,-2.114c2.7,-0 4.83,0.675 6.389,2.025c1.559,1.35 2.361,3.234 2.406,5.651l-0,11.458c-0,2.343 0.246,4.096 0.738,5.259l0,0.269l-2.864,-0Zm-8.415,-1.925c1.791,0 3.391,-0.432 4.801,-1.298c1.409,-0.865 2.435,-2.021 3.077,-3.469l-0,-5.326l-4.789,0c-2.671,0.03 -4.76,0.519 -6.267,1.466c-1.507,0.947 -2.26,2.249 -2.26,3.905c-0,1.358 0.503,2.484 1.511,3.379c1.007,0.896 2.316,1.343 3.927,1.343Z" style="fill-rule:nonzero;"/><path d="M684.24,189.021c-0,-1.327 -0.534,-2.394 -1.6,-3.2c-1.067,-0.805 -2.675,-1.436 -4.823,-1.891c-2.149,-0.455 -3.816,-0.977 -5.002,-1.566c-1.186,-0.59 -2.066,-1.31 -2.641,-2.16c-0.574,-0.85 -0.861,-1.88 -0.861,-3.088c-0,-1.91 0.798,-3.488 2.394,-4.734c1.597,-1.246 3.641,-1.868 6.132,-1.868c2.701,-0 4.868,0.667 6.501,2.003c1.634,1.335 2.451,3.077 2.451,5.225l-2.685,0c-0,-1.417 -0.594,-2.596 -1.78,-3.536c-1.186,-0.94 -2.681,-1.41 -4.487,-1.41c-1.76,0 -3.174,0.392 -4.241,1.175c-1.066,0.784 -1.6,1.802 -1.6,3.055c0,1.209 0.444,2.145 1.332,2.809c0.887,0.664 2.506,1.272 4.856,1.824c2.35,0.552 4.11,1.141 5.282,1.768c1.171,0.626 2.04,1.38 2.607,2.26c0.567,0.88 0.85,1.947 0.85,3.2c0,2.044 -0.824,3.678 -2.473,4.901c-1.648,1.224 -3.8,1.835 -6.456,1.835c-2.82,0 -5.106,-0.682 -6.859,-2.047c-1.754,-1.365 -2.63,-3.092 -2.63,-5.181l2.686,-0c0.104,1.566 0.764,2.786 1.98,3.659c1.216,0.873 2.824,1.309 4.823,1.309c1.865,0 3.372,-0.41 4.521,-1.231c1.148,-0.82 1.723,-1.857 1.723,-3.111Z" style="fill-rule:nonzero;"/><path d="M696.531,170.961l0.089,3.939c0.895,-1.462 2.014,-2.559 3.357,-3.29c1.343,-0.731 2.835,-1.096 4.476,-1.096c3.819,-0 6.244,1.566 7.273,4.699c0.866,-1.507 2.022,-2.667 3.469,-3.48c1.447,-0.813 3.044,-1.219 4.789,-1.219c5.192,-0 7.841,2.834 7.945,8.504l0,16.158l-2.685,-0l-0,-15.957c-0.015,-2.163 -0.482,-3.767 -1.399,-4.811c-0.918,-1.045 -2.413,-1.567 -4.487,-1.567c-1.925,0.03 -3.551,0.653 -4.879,1.869c-1.328,1.216 -2.066,2.697 -2.216,4.442l0,16.024l-2.685,-0l-0,-16.158c-0.015,-2.074 -0.504,-3.622 -1.466,-4.644c-0.962,-1.022 -2.443,-1.533 -4.442,-1.533c-1.686,0 -3.133,0.481 -4.342,1.444c-1.208,0.962 -2.104,2.39 -2.685,4.285l-0,16.606l-2.686,-0l-0,-24.215l2.574,0Z" style="fill-rule:nonzero;"/><path d="M751.432,192.11c-1.611,2.342 -4.185,3.513 -7.721,3.513c-2.581,0 -4.543,-0.749 -5.886,-2.249c-1.342,-1.499 -2.029,-3.718 -2.059,-6.658l0,-15.755l2.664,0l-0,15.42c-0,4.61 1.865,6.915 5.595,6.915c3.879,-0 6.333,-1.604 7.362,-4.812l0,-17.523l2.686,0l-0,24.215l-2.596,-0l-0.045,-3.066Z" style="fill-rule:nonzero;"/><path d="M776.681,189.021c-0,-1.327 -0.534,-2.394 -1.6,-3.2c-1.067,-0.805 -2.675,-1.436 -4.823,-1.891c-2.149,-0.455 -3.816,-0.977 -5.002,-1.566c-1.186,-0.59 -2.066,-1.31 -2.641,-2.16c-0.574,-0.85 -0.861,-1.88 -0.861,-3.088c-0,-1.91 0.798,-3.488 2.394,-4.734c1.597,-1.246 3.641,-1.868 6.132,-1.868c2.701,-0 4.868,0.667 6.501,2.003c1.634,1.335 2.451,3.077 2.451,5.225l-2.685,0c-0,-1.417 -0.594,-2.596 -1.78,-3.536c-1.186,-0.94 -2.681,-1.41 -4.487,-1.41c-1.76,0 -3.174,0.392 -4.241,1.175c-1.066,0.784 -1.6,1.802 -1.6,3.055c0,1.209 0.444,2.145 1.332,2.809c0.887,0.664 2.506,1.272 4.856,1.824c2.35,0.552 4.11,1.141 5.282,1.768c1.171,0.626 2.04,1.38 2.607,2.26c0.567,0.88 0.85,1.947 0.85,3.2c0,2.044 -0.824,3.678 -2.473,4.901c-1.648,1.224 -3.8,1.835 -6.456,1.835c-2.82,0 -5.106,-0.682 -6.859,-2.047c-1.754,-1.365 -2.63,-3.092 -2.63,-5.181l2.686,-0c0.104,1.566 0.764,2.786 1.98,3.659c1.216,0.873 2.824,1.309 4.823,1.309c1.865,0 3.372,-0.41 4.521,-1.231c1.148,-0.82 1.723,-1.857 1.723,-3.111Z" style="fill-rule:nonzero;"/><path d="M789.531,195.176l-2.685,-0l-0,-24.215l2.685,0l0,24.215Zm-3.155,-31.22c-0,-0.507 0.164,-0.936 0.492,-1.286c0.328,-0.351 0.776,-0.526 1.343,-0.526c0.567,-0 1.018,0.175 1.354,0.526c0.335,0.35 0.503,0.779 0.503,1.286c0,0.508 -0.168,0.933 -0.503,1.276c-0.336,0.343 -0.787,0.515 -1.354,0.515c-0.567,-0 -1.015,-0.172 -1.343,-0.515c-0.328,-0.343 -0.492,-0.768 -0.492,-1.276Z" style="fill-rule:nonzero;"/><path d="M803.702,182.979l-3.066,2.954l-0,9.243l-2.686,-0l0,-34.375l2.686,-0l-0,21.999l2.529,-2.73l9.265,-9.109l3.379,0l-10.272,10.205l11.167,14.01l-3.2,-0l-9.802,-12.197Z" style="fill-rule:nonzero;"/><path d="M829.085,191.483l7.363,-20.522l2.752,0l-9.041,24.215l-2.171,-0l-9.086,-24.215l2.753,0l7.43,20.522Z" style="fill-rule:nonzero;"/><path d="M854.11,195.623c-2.059,0 -3.921,-0.507 -5.584,-1.521c-1.664,-1.015 -2.958,-2.429 -3.883,-4.241c-0.925,-1.813 -1.388,-3.846 -1.388,-6.099l0,-0.962c0,-2.327 0.452,-4.424 1.354,-6.289c0.903,-1.865 2.16,-3.331 3.771,-4.397c1.612,-1.067 3.357,-1.6 5.237,-1.6c2.939,-0 5.271,1.003 6.994,3.01c1.723,2.006 2.585,4.748 2.585,8.224l-0,1.5l-17.277,-0l-0,0.514c-0,2.746 0.787,5.032 2.361,6.86c1.574,1.827 3.554,2.741 5.941,2.741c1.433,0 2.697,-0.261 3.794,-0.783c1.096,-0.522 2.092,-1.358 2.987,-2.507l1.679,1.276c-1.969,2.85 -4.827,4.274 -8.571,4.274Zm-0.493,-22.827c-2.014,0 -3.711,0.739 -5.091,2.216c-1.38,1.477 -2.219,3.461 -2.518,5.953l14.525,-0l-0,-0.291c-0.075,-2.328 -0.739,-4.222 -1.992,-5.684c-1.254,-1.463 -2.895,-2.194 -4.924,-2.194Z" style="fill-rule:nonzero;"/><path d="M880.746,173.244c-0.567,-0.105 -1.171,-0.157 -1.813,-0.157c-1.671,0 -3.085,0.466 -4.241,1.399c-1.156,0.932 -1.981,2.286 -2.473,4.062l0,16.628l-2.663,-0l-0,-24.215l2.618,0l0.045,3.849c1.417,-2.864 3.693,-4.296 6.826,-4.296c0.746,-0 1.335,0.097 1.768,0.291l-0.067,2.439Z" style="fill-rule:nonzero;"/><path d="M905.614,183.315c-0,3.774 -0.836,6.77 -2.507,8.985c-1.671,2.216 -3.916,3.323 -6.736,3.323c-3.372,0 -5.923,-1.253 -7.654,-3.759l-0.112,3.312l-2.506,-0l-0,-34.375l2.663,-0l0,13.674c1.701,-2.641 4.222,-3.961 7.564,-3.961c2.865,-0 5.129,1.092 6.793,3.278c1.663,2.186 2.495,5.226 2.495,9.12l-0,0.403Zm-2.686,-0.47c0,-3.193 -0.619,-5.659 -1.857,-7.397c-1.238,-1.738 -2.984,-2.607 -5.237,-2.607c-1.716,0 -3.17,0.422 -4.364,1.265c-1.194,0.842 -2.096,2.077 -2.708,3.703l0,10.922c1.343,3.043 3.715,4.565 7.117,4.565c2.208,-0 3.935,-0.873 5.181,-2.618c1.245,-1.746 1.868,-4.357 1.868,-7.833Z" style="fill-rule:nonzero;"/><path d="M927.953,195.176c-0.268,-0.761 -0.44,-1.887 -0.515,-3.379c-0.94,1.223 -2.137,2.167 -3.591,2.831c-1.455,0.664 -2.996,0.995 -4.622,0.995c-2.327,0 -4.211,-0.649 -5.651,-1.947c-1.439,-1.298 -2.159,-2.939 -2.159,-4.923c-0,-2.357 0.981,-4.222 2.943,-5.595c1.962,-1.373 4.696,-2.059 8.202,-2.059l4.856,0l0,-2.753c0,-1.73 -0.533,-3.092 -1.6,-4.084c-1.067,-0.992 -2.622,-1.488 -4.666,-1.488c-1.865,-0 -3.409,0.477 -4.633,1.432c-1.223,0.955 -1.835,2.104 -1.835,3.447l-2.685,-0.023c-0,-1.924 0.895,-3.592 2.685,-5.002c1.79,-1.409 3.991,-2.114 6.602,-2.114c2.701,-0 4.83,0.675 6.389,2.025c1.56,1.35 2.361,3.234 2.406,5.651l0,11.458c0,2.343 0.246,4.096 0.739,5.259l-0,0.269l-2.865,-0Zm-8.415,-1.925c1.791,0 3.391,-0.432 4.801,-1.298c1.41,-0.865 2.436,-2.021 3.077,-3.469l0,-5.326l-4.789,0c-2.671,0.03 -4.76,0.519 -6.266,1.466c-1.507,0.947 -2.261,2.249 -2.261,3.905c0,1.358 0.504,2.484 1.511,3.379c1.007,0.896 2.316,1.343 3.927,1.343Z" style="fill-rule:nonzero;"/><path d="M940.915,170.961l0.09,4.14c0.91,-1.492 2.044,-2.629 3.402,-3.412c1.357,-0.784 2.857,-1.175 4.498,-1.175c2.596,-0 4.528,0.731 5.796,2.193c1.268,1.462 1.91,3.655 1.925,6.579l-0,15.89l-2.663,-0l-0,-15.912c-0.015,-2.163 -0.474,-3.775 -1.377,-4.834c-0.902,-1.059 -2.346,-1.589 -4.33,-1.589c-1.656,0 -3.122,0.519 -4.398,1.555c-1.275,1.037 -2.219,2.436 -2.831,4.197l0,16.583l-2.663,-0l0,-24.215l2.551,0Z" style="fill-rule:nonzero;"/><path d="M963.613,182.845c-0,-3.76 0.839,-6.755 2.517,-8.986c1.679,-2.23 3.958,-3.345 6.837,-3.345c3.268,-0 5.759,1.29 7.475,3.871l0,-13.584l2.663,-0l0,34.375l-2.506,-0l-0.112,-3.223c-1.716,2.447 -4.237,3.67 -7.564,3.67c-2.79,0 -5.039,-1.122 -6.748,-3.368c-1.708,-2.245 -2.562,-5.278 -2.562,-9.097l-0,-0.313Zm2.708,0.47c-0,3.088 0.619,5.524 1.857,7.307c1.239,1.783 2.984,2.674 5.237,2.674c3.297,-0 5.64,-1.455 7.027,-4.364l0,-11.369c-1.387,-3.148 -3.715,-4.722 -6.982,-4.722c-2.253,0 -4.006,0.884 -5.259,2.652c-1.254,1.768 -1.88,4.375 -1.88,7.822Z" style="fill-rule:nonzero;"/><path d="M393.203,231.878l-14.793,0l-3.357,9.131l-2.887,0l12.331,-32.584l2.618,-0l12.331,32.584l-2.864,0l-3.379,-9.131Zm-13.943,-2.35l13.07,0l-6.535,-17.746l-6.535,17.746Z" style="fill-rule:nonzero;"/><path d="M419.257,234.855c-0,-1.328 -0.534,-2.395 -1.6,-3.2c-1.067,-0.806 -2.675,-1.436 -4.823,-1.892c-2.148,-0.455 -3.816,-0.977 -5.002,-1.566c-1.186,-0.589 -2.066,-1.309 -2.641,-2.16c-0.574,-0.85 -0.861,-1.88 -0.861,-3.088c-0,-1.91 0.798,-3.488 2.394,-4.733c1.597,-1.246 3.641,-1.869 6.132,-1.869c2.701,-0 4.868,0.668 6.502,2.003c1.633,1.335 2.45,3.077 2.45,5.226l-2.685,-0c-0,-1.418 -0.593,-2.596 -1.78,-3.536c-1.186,-0.94 -2.681,-1.41 -4.487,-1.41c-1.76,-0 -3.174,0.391 -4.241,1.175c-1.066,0.783 -1.6,1.801 -1.6,3.054c0,1.209 0.444,2.145 1.332,2.809c0.888,0.664 2.506,1.272 4.856,1.824c2.35,0.552 4.111,1.141 5.282,1.768c1.171,0.627 2.04,1.38 2.607,2.26c0.567,0.881 0.85,1.947 0.85,3.201c0,2.044 -0.824,3.677 -2.473,4.901c-1.648,1.223 -3.8,1.835 -6.456,1.835c-2.82,-0 -5.106,-0.683 -6.859,-2.048c-1.753,-1.365 -2.63,-3.092 -2.63,-5.181l2.686,0c0.104,1.567 0.764,2.786 1.98,3.659c1.216,0.873 2.824,1.309 4.823,1.309c1.865,0 3.372,-0.41 4.521,-1.23c1.148,-0.821 1.723,-1.858 1.723,-3.111Z" style="fill-rule:nonzero;"/><path d="M443.61,234.855c0,-1.328 -0.533,-2.395 -1.6,-3.2c-1.067,-0.806 -2.674,-1.436 -4.823,-1.892c-2.148,-0.455 -3.815,-0.977 -5.001,-1.566c-1.187,-0.589 -2.067,-1.309 -2.641,-2.16c-0.575,-0.85 -0.862,-1.88 -0.862,-3.088c0,-1.91 0.798,-3.488 2.395,-4.733c1.596,-1.246 3.64,-1.869 6.132,-1.869c2.7,-0 4.867,0.668 6.501,2.003c1.634,1.335 2.451,3.077 2.451,5.226l-2.686,-0c0,-1.418 -0.593,-2.596 -1.779,-3.536c-1.186,-0.94 -2.682,-1.41 -4.487,-1.41c-1.761,-0 -3.174,0.391 -4.241,1.175c-1.067,0.783 -1.6,1.801 -1.6,3.054c-0,1.209 0.444,2.145 1.331,2.809c0.888,0.664 2.507,1.272 4.857,1.824c2.349,0.552 4.11,1.141 5.281,1.768c1.171,0.627 2.04,1.38 2.607,2.26c0.567,0.881 0.851,1.947 0.851,3.201c-0,2.044 -0.824,3.677 -2.473,4.901c-1.649,1.223 -3.801,1.835 -6.457,1.835c-2.819,-0 -5.106,-0.683 -6.859,-2.048c-1.753,-1.365 -2.63,-3.092 -2.63,-5.181l2.686,0c0.104,1.567 0.765,2.786 1.981,3.659c1.216,0.873 2.823,1.309 4.822,1.309c1.865,0 3.372,-0.41 4.521,-1.23c1.149,-0.821 1.723,-1.858 1.723,-3.111Z" style="fill-rule:nonzero;"/><path d="M451.985,228.544c-0,-2.328 0.451,-4.424 1.354,-6.289c0.902,-1.865 2.178,-3.316 3.827,-4.353c1.648,-1.037 3.517,-1.555 5.606,-1.555c3.222,-0 5.833,1.13 7.833,3.39c1.999,2.261 2.998,5.256 2.998,8.986l0,0.559c0,2.343 -0.451,4.45 -1.354,6.323c-0.902,1.872 -2.174,3.315 -3.815,4.33c-1.641,1.015 -3.514,1.522 -5.618,1.522c-3.207,-0 -5.815,-1.13 -7.821,-3.391c-2.007,-2.26 -3.01,-5.255 -3.01,-8.985l-0,-0.537Zm2.685,0.738c0,2.895 0.75,5.271 2.249,7.128c1.5,1.858 3.466,2.786 5.897,2.786c2.417,0 4.376,-0.928 5.875,-2.786c1.5,-1.857 2.249,-4.308 2.249,-7.351l0,-0.515c0,-1.85 -0.343,-3.544 -1.029,-5.08c-0.687,-1.537 -1.649,-2.727 -2.887,-3.57c-1.239,-0.843 -2.656,-1.264 -4.252,-1.264c-2.387,-0 -4.334,0.936 -5.841,2.808c-1.507,1.873 -2.261,4.323 -2.261,7.352l0,0.492Z" style="fill-rule:nonzero;"/><path d="M489.229,239.196c1.865,0 3.428,-0.525 4.688,-1.577c1.261,-1.052 1.944,-2.414 2.048,-4.085l2.574,0c-0.075,1.477 -0.537,2.824 -1.388,4.04c-0.85,1.216 -1.98,2.167 -3.39,2.853c-1.41,0.687 -2.921,1.03 -4.532,1.03c-3.178,-0 -5.696,-1.104 -7.553,-3.312c-1.858,-2.208 -2.787,-5.178 -2.787,-8.907l0,-0.806c0,-2.387 0.418,-4.498 1.254,-6.334c0.835,-1.835 2.033,-3.252 3.592,-4.252c1.559,-0.999 3.383,-1.499 5.471,-1.499c2.656,-0 4.846,0.791 6.569,2.372c1.723,1.582 2.644,3.663 2.764,6.244l-2.574,0c-0.119,-1.895 -0.802,-3.424 -2.048,-4.588c-1.245,-1.163 -2.816,-1.745 -4.711,-1.745c-2.417,-0 -4.293,0.872 -5.628,2.618c-1.335,1.746 -2.003,4.192 -2.003,7.341l-0,0.783c-0,3.088 0.668,5.498 2.003,7.228c1.335,1.731 3.219,2.596 5.651,2.596Z" style="fill-rule:nonzero;"/><path d="M508.032,241.009l-2.685,0l-0,-24.214l2.685,-0l0,24.214Zm-3.155,-31.219c-0,-0.508 0.164,-0.936 0.492,-1.287c0.328,-0.351 0.776,-0.526 1.343,-0.526c0.567,-0 1.018,0.175 1.354,0.526c0.335,0.351 0.503,0.779 0.503,1.287c0,0.507 -0.168,0.932 -0.503,1.275c-0.336,0.344 -0.787,0.515 -1.354,0.515c-0.567,0 -1.015,-0.171 -1.343,-0.515c-0.328,-0.343 -0.492,-0.768 -0.492,-1.275Z" style="fill-rule:nonzero;"/><path d="M531.737,241.009c-0.269,-0.761 -0.441,-1.887 -0.515,-3.379c-0.94,1.223 -2.137,2.167 -3.592,2.831c-1.455,0.664 -2.995,0.996 -4.621,0.996c-2.328,-0 -4.212,-0.649 -5.651,-1.947c-1.44,-1.298 -2.16,-2.939 -2.16,-4.924c0,-2.357 0.981,-4.222 2.943,-5.595c1.962,-1.372 4.696,-2.059 8.202,-2.059l4.856,0l0,-2.752c0,-1.731 -0.533,-3.092 -1.6,-4.084c-1.066,-0.993 -2.622,-1.489 -4.666,-1.489c-1.865,0 -3.409,0.478 -4.632,1.433c-1.224,0.954 -1.836,2.103 -1.836,3.446l-2.685,-0.022c-0,-1.925 0.895,-3.592 2.685,-5.002c1.791,-1.41 3.991,-2.115 6.602,-2.115c2.701,-0 4.831,0.675 6.39,2.025c1.559,1.351 2.361,3.234 2.406,5.651l-0,11.458c-0,2.343 0.246,4.096 0.738,5.26l0,0.268l-2.864,0Zm-8.415,-1.924c1.79,-0 3.39,-0.433 4.8,-1.298c1.41,-0.866 2.436,-2.022 3.077,-3.469l0,-5.327l-4.789,0c-2.67,0.03 -4.759,0.519 -6.266,1.466c-1.507,0.948 -2.26,2.249 -2.26,3.905c-0,1.358 0.503,2.485 1.51,3.38c1.007,0.895 2.316,1.343 3.928,1.343Z" style="fill-rule:nonzero;"/><path d="M546.31,210.595l0,6.2l5.013,-0l0,2.193l-5.013,-0l0,16.135c0,1.343 0.243,2.343 0.727,2.999c0.485,0.657 1.295,0.985 2.429,0.985c0.447,-0 1.171,-0.075 2.17,-0.224l0.112,2.193c-0.701,0.254 -1.656,0.381 -2.864,0.381c-1.835,-0 -3.171,-0.534 -4.006,-1.6c-0.836,-1.067 -1.253,-2.637 -1.253,-4.711l-0,-16.158l-4.454,-0l0,-2.193l4.454,-0l-0,-6.2l2.685,0Z" style="fill-rule:nonzero;"/><path d="M561.018,241.009l-2.686,0l0,-24.214l2.686,-0l-0,24.214Zm-3.156,-31.219c0,-0.508 0.165,-0.936 0.493,-1.287c0.328,-0.351 0.776,-0.526 1.343,-0.526c0.566,-0 1.018,0.175 1.354,0.526c0.335,0.351 0.503,0.779 0.503,1.287c0,0.507 -0.168,0.932 -0.503,1.275c-0.336,0.344 -0.788,0.515 -1.354,0.515c-0.567,0 -1.015,-0.171 -1.343,-0.515c-0.328,-0.343 -0.493,-0.768 -0.493,-1.275Z" style="fill-rule:nonzero;"/><path d="M567.96,228.544c0,-2.328 0.451,-4.424 1.354,-6.289c0.903,-1.865 2.178,-3.316 3.827,-4.353c1.649,-1.037 3.517,-1.555 5.606,-1.555c3.223,-0 5.834,1.13 7.833,3.39c1.999,2.261 2.999,5.256 2.999,8.986l-0,0.559c-0,2.343 -0.452,4.45 -1.354,6.323c-0.903,1.872 -2.175,3.315 -3.816,4.33c-1.641,1.015 -3.514,1.522 -5.617,1.522c-3.208,-0 -5.815,-1.13 -7.822,-3.391c-2.007,-2.26 -3.01,-5.255 -3.01,-8.985l0,-0.537Zm2.686,0.738c-0,2.895 0.749,5.271 2.249,7.128c1.499,1.858 3.465,2.786 5.897,2.786c2.417,0 4.375,-0.928 5.874,-2.786c1.5,-1.857 2.25,-4.308 2.25,-7.351l-0,-0.515c-0,-1.85 -0.344,-3.544 -1.03,-5.08c-0.686,-1.537 -1.649,-2.727 -2.887,-3.57c-1.238,-0.843 -2.656,-1.264 -4.252,-1.264c-2.387,-0 -4.334,0.936 -5.841,2.808c-1.507,1.873 -2.26,4.323 -2.26,7.352l-0,0.492Z" style="fill-rule:nonzero;"/><path d="M598.804,216.795l0.089,4.14c0.91,-1.492 2.044,-2.63 3.402,-3.413c1.357,-0.783 2.857,-1.175 4.498,-1.175c2.596,-0 4.528,0.731 5.796,2.193c1.269,1.462 1.91,3.655 1.925,6.58l0,15.889l-2.663,0l-0,-15.912c-0.015,-2.163 -0.474,-3.774 -1.376,-4.834c-0.903,-1.059 -2.347,-1.589 -4.331,-1.589c-1.656,0 -3.122,0.519 -4.398,1.556c-1.275,1.037 -2.219,2.435 -2.831,4.196l0,16.583l-2.663,0l0,-24.214l2.552,-0Z" style="fill-rule:nonzero;"/><path d="M649.368,234.855c-0,-1.328 -0.533,-2.395 -1.6,-3.2c-1.067,-0.806 -2.675,-1.436 -4.823,-1.892c-2.148,-0.455 -3.816,-0.977 -5.002,-1.566c-1.186,-0.589 -2.066,-1.309 -2.641,-2.16c-0.574,-0.85 -0.861,-1.88 -0.861,-3.088c-0,-1.91 0.798,-3.488 2.394,-4.733c1.597,-1.246 3.641,-1.869 6.132,-1.869c2.701,-0 4.868,0.668 6.502,2.003c1.633,1.335 2.45,3.077 2.45,5.226l-2.685,-0c-0,-1.418 -0.593,-2.596 -1.779,-3.536c-1.187,-0.94 -2.682,-1.41 -4.488,-1.41c-1.76,-0 -3.174,0.391 -4.241,1.175c-1.066,0.783 -1.6,1.801 -1.6,3.054c0,1.209 0.444,2.145 1.332,2.809c0.888,0.664 2.506,1.272 4.856,1.824c2.35,0.552 4.111,1.141 5.282,1.768c1.171,0.627 2.04,1.38 2.607,2.26c0.567,0.881 0.851,1.947 0.851,3.201c-0,2.044 -0.825,3.677 -2.473,4.901c-1.649,1.223 -3.801,1.835 -6.457,1.835c-2.82,-0 -5.106,-0.683 -6.859,-2.048c-1.753,-1.365 -2.63,-3.092 -2.63,-5.181l2.686,0c0.104,1.567 0.764,2.786 1.98,3.659c1.216,0.873 2.824,1.309 4.823,1.309c1.865,0 3.372,-0.41 4.521,-1.23c1.149,-0.821 1.723,-1.858 1.723,-3.111Z" style="fill-rule:nonzero;"/><path d="M674.796,237.943c-1.612,2.343 -4.185,3.514 -7.721,3.514c-2.581,-0 -4.543,-0.75 -5.886,-2.249c-1.343,-1.5 -2.029,-3.719 -2.059,-6.658l-0,-15.755l2.663,-0l0,15.419c0,4.61 1.865,6.915 5.595,6.915c3.879,0 6.333,-1.604 7.363,-4.811l-0,-17.523l2.685,-0l0,24.214l-2.596,0l-0.044,-3.066Z" style="fill-rule:nonzero;"/><path d="M688.541,241.009l-2.685,0l-0,-24.214l2.685,-0l0,24.214Zm-3.155,-31.219c-0,-0.508 0.164,-0.936 0.492,-1.287c0.328,-0.351 0.776,-0.526 1.343,-0.526c0.567,-0 1.018,0.175 1.354,0.526c0.335,0.351 0.503,0.779 0.503,1.287c0,0.507 -0.168,0.932 -0.503,1.275c-0.336,0.344 -0.787,0.515 -1.354,0.515c-0.567,0 -1.015,-0.171 -1.343,-0.515c-0.328,-0.343 -0.492,-0.768 -0.492,-1.275Z" style="fill-rule:nonzero;"/><path d="M711.462,234.855c0,-1.328 -0.533,-2.395 -1.6,-3.2c-1.067,-0.806 -2.674,-1.436 -4.823,-1.892c-2.148,-0.455 -3.815,-0.977 -5.001,-1.566c-1.187,-0.589 -2.067,-1.309 -2.641,-2.16c-0.575,-0.85 -0.862,-1.88 -0.862,-3.088c0,-1.91 0.798,-3.488 2.395,-4.733c1.596,-1.246 3.64,-1.869 6.132,-1.869c2.7,-0 4.867,0.668 6.501,2.003c1.634,1.335 2.451,3.077 2.451,5.226l-2.686,-0c-0,-1.418 -0.593,-2.596 -1.779,-3.536c-1.186,-0.94 -2.682,-1.41 -4.487,-1.41c-1.761,-0 -3.174,0.391 -4.241,1.175c-1.067,0.783 -1.6,1.801 -1.6,3.054c-0,1.209 0.444,2.145 1.331,2.809c0.888,0.664 2.507,1.272 4.857,1.824c2.349,0.552 4.11,1.141 5.281,1.768c1.171,0.627 2.04,1.38 2.607,2.26c0.567,0.881 0.851,1.947 0.851,3.201c-0,2.044 -0.824,3.677 -2.473,4.901c-1.649,1.223 -3.801,1.835 -6.457,1.835c-2.819,-0 -5.106,-0.683 -6.859,-2.048c-1.753,-1.365 -2.63,-3.092 -2.63,-5.181l2.686,0c0.104,1.567 0.765,2.786 1.981,3.659c1.216,0.873 2.823,1.309 4.822,1.309c1.865,0 3.372,-0.41 4.521,-1.23c1.149,-0.821 1.723,-1.858 1.723,-3.111Z" style="fill-rule:nonzero;"/><path d="M735.816,234.855c-0,-1.328 -0.534,-2.395 -1.6,-3.2c-1.067,-0.806 -2.675,-1.436 -4.823,-1.892c-2.149,-0.455 -3.816,-0.977 -5.002,-1.566c-1.186,-0.589 -2.066,-1.309 -2.641,-2.16c-0.574,-0.85 -0.861,-1.88 -0.861,-3.088c-0,-1.91 0.798,-3.488 2.394,-4.733c1.597,-1.246 3.641,-1.869 6.132,-1.869c2.701,-0 4.868,0.668 6.501,2.003c1.634,1.335 2.451,3.077 2.451,5.226l-2.686,-0c0,-1.418 -0.593,-2.596 -1.779,-3.536c-1.186,-0.94 -2.682,-1.41 -4.487,-1.41c-1.76,-0 -3.174,0.391 -4.241,1.175c-1.067,0.783 -1.6,1.801 -1.6,3.054c0,1.209 0.444,2.145 1.332,2.809c0.887,0.664 2.506,1.272 4.856,1.824c2.35,0.552 4.11,1.141 5.282,1.768c1.171,0.627 2.04,1.38 2.607,2.26c0.567,0.881 0.85,1.947 0.85,3.201c0,2.044 -0.824,3.677 -2.473,4.901c-1.648,1.223 -3.8,1.835 -6.456,1.835c-2.82,-0 -5.106,-0.683 -6.86,-2.048c-1.753,-1.365 -2.629,-3.092 -2.629,-5.181l2.685,0c0.105,1.567 0.765,2.786 1.981,3.659c1.216,0.873 2.824,1.309 4.823,1.309c1.865,0 3.372,-0.41 4.52,-1.23c1.149,-0.821 1.724,-1.858 1.724,-3.111Z" style="fill-rule:nonzero;"/><path d="M755.044,241.457c-2.059,-0 -3.92,-0.507 -5.583,-1.522c-1.664,-1.015 -2.958,-2.428 -3.883,-4.241c-0.925,-1.813 -1.388,-3.845 -1.388,-6.098l0,-0.963c0,-2.327 0.451,-4.423 1.354,-6.288c0.903,-1.865 2.16,-3.331 3.771,-4.398c1.611,-1.067 3.357,-1.6 5.237,-1.6c2.939,-0 5.27,1.003 6.993,3.01c1.724,2.007 2.585,4.748 2.585,8.224l0,1.5l-17.277,-0l0,0.515c0,2.745 0.787,5.031 2.361,6.859c1.574,1.828 3.555,2.741 5.942,2.741c1.432,0 2.697,-0.261 3.793,-0.783c1.097,-0.522 2.093,-1.358 2.988,-2.506l1.679,1.275c-1.97,2.85 -4.827,4.275 -8.572,4.275Zm-0.492,-22.827c-2.014,-0 -3.711,0.738 -5.091,2.215c-1.381,1.477 -2.22,3.462 -2.518,5.953l14.524,0l0,-0.291c-0.074,-2.327 -0.738,-4.222 -1.992,-5.684c-1.253,-1.462 -2.894,-2.193 -4.923,-2.193Z" style="fill-rule:nonzero;"/><path d="M781.707,228.678c0,-3.76 0.839,-6.755 2.518,-8.985c1.678,-2.231 3.957,-3.346 6.837,-3.346c3.267,-0 5.759,1.29 7.475,3.872l-0,-13.585l2.663,0l-0,34.375l-2.507,0l-0.112,-3.222c-1.715,2.446 -4.237,3.67 -7.564,3.67c-2.79,-0 -5.039,-1.123 -6.747,-3.368c-1.709,-2.246 -2.563,-5.278 -2.563,-9.098l0,-0.313Zm2.708,0.47c0,3.088 0.619,5.524 1.858,7.307c1.238,1.783 2.984,2.674 5.236,2.674c3.298,0 5.64,-1.454 7.028,-4.364l-0,-11.369c-1.388,-3.148 -3.715,-4.722 -6.983,-4.722c-2.253,0 -4.006,0.884 -5.259,2.652c-1.253,1.768 -1.88,4.376 -1.88,7.822Z" style="fill-rule:nonzero;"/><path d="M818.772,241.457c-2.059,-0 -3.92,-0.507 -5.583,-1.522c-1.664,-1.015 -2.958,-2.428 -3.883,-4.241c-0.925,-1.813 -1.388,-3.845 -1.388,-6.098l0,-0.963c0,-2.327 0.451,-4.423 1.354,-6.288c0.903,-1.865 2.16,-3.331 3.771,-4.398c1.611,-1.067 3.357,-1.6 5.237,-1.6c2.939,-0 5.27,1.003 6.994,3.01c1.723,2.007 2.584,4.748 2.584,8.224l0,1.5l-17.277,-0l0,0.515c0,2.745 0.787,5.031 2.361,6.859c1.574,1.828 3.555,2.741 5.942,2.741c1.432,0 2.697,-0.261 3.793,-0.783c1.097,-0.522 2.093,-1.358 2.988,-2.506l1.679,1.275c-1.97,2.85 -4.827,4.275 -8.572,4.275Zm-0.492,-22.827c-2.014,-0 -3.711,0.738 -5.091,2.215c-1.381,1.477 -2.22,3.462 -2.518,5.953l14.524,0l0,-0.291c-0.074,-2.327 -0.738,-4.222 -1.992,-5.684c-1.253,-1.462 -2.894,-2.193 -4.923,-2.193Z" style="fill-rule:nonzero;"/><path d="M848.721,234.855c-0,-1.328 -0.534,-2.395 -1.601,-3.2c-1.066,-0.806 -2.674,-1.436 -4.822,-1.892c-2.149,-0.455 -3.816,-0.977 -5.002,-1.566c-1.186,-0.589 -2.067,-1.309 -2.641,-2.16c-0.574,-0.85 -0.862,-1.88 -0.862,-3.088c0,-1.91 0.799,-3.488 2.395,-4.733c1.596,-1.246 3.64,-1.869 6.132,-1.869c2.7,-0 4.868,0.668 6.501,2.003c1.634,1.335 2.451,3.077 2.451,5.226l-2.686,-0c0,-1.418 -0.593,-2.596 -1.779,-3.536c-1.186,-0.94 -2.682,-1.41 -4.487,-1.41c-1.761,-0 -3.174,0.391 -4.241,1.175c-1.067,0.783 -1.6,1.801 -1.6,3.054c-0,1.209 0.444,2.145 1.332,2.809c0.887,0.664 2.506,1.272 4.856,1.824c2.35,0.552 4.11,1.141 5.281,1.768c1.172,0.627 2.041,1.38 2.608,2.26c0.567,0.881 0.85,1.947 0.85,3.201c0,2.044 -0.824,3.677 -2.473,4.901c-1.648,1.223 -3.801,1.835 -6.456,1.835c-2.82,-0 -5.107,-0.683 -6.86,-2.048c-1.753,-1.365 -2.629,-3.092 -2.629,-5.181l2.685,0c0.105,1.567 0.765,2.786 1.981,3.659c1.216,0.873 2.823,1.309 4.823,1.309c1.865,0 3.372,-0.41 4.52,-1.23c1.149,-0.821 1.724,-1.858 1.724,-3.111Z" style="fill-rule:nonzero;"/><path d="M873.302,216.795l0.09,3.938c0.895,-1.462 2.014,-2.558 3.357,-3.289c1.343,-0.732 2.834,-1.097 4.476,-1.097c3.819,-0 6.244,1.567 7.273,4.7c0.865,-1.507 2.022,-2.667 3.469,-3.48c1.447,-0.814 3.043,-1.22 4.789,-1.22c5.192,-0 7.84,2.835 7.945,8.504l-0,16.158l-2.686,0l0,-15.956c-0.015,-2.164 -0.481,-3.768 -1.398,-4.812c-0.918,-1.044 -2.414,-1.567 -4.488,-1.567c-1.924,0.03 -3.55,0.653 -4.878,1.869c-1.328,1.216 -2.067,2.697 -2.216,4.442l0,16.024l-2.685,0l-0,-16.158c-0.015,-2.074 -0.504,-3.622 -1.466,-4.644c-0.963,-1.022 -2.443,-1.533 -4.443,-1.533c-1.686,0 -3.133,0.482 -4.341,1.444c-1.209,0.962 -2.104,2.391 -2.686,4.286l0,16.605l-2.685,0l-0,-24.214l2.573,-0Z" style="fill-rule:nonzero;"/><path d="M928.204,237.943c-1.612,2.343 -4.185,3.514 -7.721,3.514c-2.581,-0 -4.543,-0.75 -5.886,-2.249c-1.343,-1.5 -2.029,-3.719 -2.059,-6.658l0,-15.755l2.663,-0l0,15.419c0,4.61 1.865,6.915 5.595,6.915c3.879,0 6.334,-1.604 7.363,-4.811l0,-17.523l2.686,-0l-0,24.214l-2.596,0l-0.045,-3.066Z" style="fill-rule:nonzero;"/><path d="M953.452,234.855c0,-1.328 -0.533,-2.395 -1.6,-3.2c-1.066,-0.806 -2.674,-1.436 -4.823,-1.892c-2.148,-0.455 -3.815,-0.977 -5.001,-1.566c-1.186,-0.589 -2.067,-1.309 -2.641,-2.16c-0.575,-0.85 -0.862,-1.88 -0.862,-3.088c0,-1.91 0.798,-3.488 2.395,-4.733c1.596,-1.246 3.64,-1.869 6.132,-1.869c2.7,-0 4.867,0.668 6.501,2.003c1.634,1.335 2.451,3.077 2.451,5.226l-2.686,-0c0,-1.418 -0.593,-2.596 -1.779,-3.536c-1.186,-0.94 -2.682,-1.41 -4.487,-1.41c-1.761,-0 -3.174,0.391 -4.241,1.175c-1.067,0.783 -1.6,1.801 -1.6,3.054c-0,1.209 0.444,2.145 1.331,2.809c0.888,0.664 2.507,1.272 4.857,1.824c2.35,0.552 4.11,1.141 5.281,1.768c1.172,0.627 2.041,1.38 2.608,2.26c0.567,0.881 0.85,1.947 0.85,3.201c-0,2.044 -0.824,3.677 -2.473,4.901c-1.649,1.223 -3.801,1.835 -6.456,1.835c-2.82,-0 -5.107,-0.683 -6.86,-2.048c-1.753,-1.365 -2.629,-3.092 -2.629,-5.181l2.685,0c0.105,1.567 0.765,2.786 1.981,3.659c1.216,0.873 2.823,1.309 4.823,1.309c1.864,0 3.371,-0.41 4.52,-1.23c1.149,-0.821 1.723,-1.858 1.723,-3.111Z" style="fill-rule:nonzero;"/><path d="M966.303,241.009l-2.686,0l0,-24.214l2.686,-0l-0,24.214Zm-3.156,-31.219c0,-0.508 0.164,-0.936 0.493,-1.287c0.328,-0.351 0.775,-0.526 1.342,-0.526c0.567,-0 1.019,0.175 1.354,0.526c0.336,0.351 0.504,0.779 0.504,1.287c-0,0.507 -0.168,0.932 -0.504,1.275c-0.335,0.344 -0.787,0.515 -1.354,0.515c-0.567,0 -1.014,-0.171 -1.342,-0.515c-0.329,-0.343 -0.493,-0.768 -0.493,-1.275Z" style="fill-rule:nonzero;"/><path d="M973.648,228.678c-0,-3.79 0.839,-6.792 2.517,-9.008c1.679,-2.215 3.973,-3.323 6.882,-3.323c3.268,-0 5.752,1.246 7.453,3.737l0.134,-3.289l2.506,-0l0,33.524l-2.685,0l-0,-12.309c-1.761,2.298 -4.245,3.447 -7.453,3.447c-2.834,-0 -5.102,-1.119 -6.803,-3.357c-1.701,-2.238 -2.551,-5.259 -2.551,-9.064l-0,-0.358Zm2.708,0.47c-0,3.133 0.63,5.591 1.891,7.374c1.26,1.783 3.01,2.674 5.248,2.674c3.207,0 5.527,-1.395 6.96,-4.185l-0,-11.861c-0.672,-1.447 -1.6,-2.562 -2.786,-3.345c-1.187,-0.784 -2.563,-1.175 -4.129,-1.175c-2.253,-0 -4.014,0.891 -5.282,2.674c-1.268,1.783 -1.902,4.398 -1.902,7.844Z" style="fill-rule:nonzero;"/><path d="M1017,237.943c-1.611,2.343 -4.185,3.514 -7.721,3.514c-2.581,-0 -4.543,-0.75 -5.885,-2.249c-1.343,-1.5 -2.029,-3.719 -2.059,-6.658l-0,-15.755l2.663,-0l-0,15.419c-0,4.61 1.865,6.915 5.595,6.915c3.879,0 6.333,-1.604 7.363,-4.811l-0,-17.523l2.685,-0l0,24.214l-2.596,0l-0.045,-3.066Z" style="fill-rule:nonzero;"/><path d="M1037.12,241.457c-2.059,-0 -3.92,-0.507 -5.584,-1.522c-1.663,-1.015 -2.957,-2.428 -3.882,-4.241c-0.925,-1.813 -1.388,-3.845 -1.388,-6.098l0,-0.963c0,-2.327 0.451,-4.423 1.354,-6.288c0.903,-1.865 2.16,-3.331 3.771,-4.398c1.611,-1.067 3.357,-1.6 5.237,-1.6c2.939,-0 5.27,1.003 6.993,3.01c1.724,2.007 2.585,4.748 2.585,8.224l0,1.5l-17.277,-0l0,0.515c0,2.745 0.787,5.031 2.361,6.859c1.574,1.828 3.555,2.741 5.942,2.741c1.432,0 2.697,-0.261 3.793,-0.783c1.097,-0.522 2.093,-1.358 2.988,-2.506l1.678,1.275c-1.969,2.85 -4.826,4.275 -8.571,4.275Zm-0.492,-22.827c-2.014,-0 -3.712,0.738 -5.092,2.215c-1.38,1.477 -2.219,3.462 -2.517,5.953l14.524,0l0,-0.291c-0.075,-2.327 -0.738,-4.222 -1.992,-5.684c-1.253,-1.462 -2.894,-2.193 -4.923,-2.193Z" style="fill-rule:nonzero;"/><path d="M1067.07,234.855c0,-1.328 -0.533,-2.395 -1.6,-3.2c-1.066,-0.806 -2.674,-1.436 -4.822,-1.892c-2.149,-0.455 -3.816,-0.977 -5.002,-1.566c-1.186,-0.589 -2.067,-1.309 -2.641,-2.16c-0.575,-0.85 -0.862,-1.88 -0.862,-3.088c0,-1.91 0.798,-3.488 2.395,-4.733c1.596,-1.246 3.64,-1.869 6.132,-1.869c2.7,-0 4.867,0.668 6.501,2.003c1.634,1.335 2.451,3.077 2.451,5.226l-2.686,-0c0,-1.418 -0.593,-2.596 -1.779,-3.536c-1.186,-0.94 -2.682,-1.41 -4.487,-1.41c-1.761,-0 -3.174,0.391 -4.241,1.175c-1.067,0.783 -1.6,1.801 -1.6,3.054c-0,1.209 0.444,2.145 1.331,2.809c0.888,0.664 2.507,1.272 4.857,1.824c2.35,0.552 4.11,1.141 5.281,1.768c1.172,0.627 2.041,1.38 2.608,2.26c0.567,0.881 0.85,1.947 0.85,3.201c-0,2.044 -0.824,3.677 -2.473,4.901c-1.649,1.223 -3.801,1.835 -6.456,1.835c-2.82,-0 -5.107,-0.683 -6.86,-2.048c-1.753,-1.365 -2.629,-3.092 -2.629,-5.181l2.685,0c0.105,1.567 0.765,2.786 1.981,3.659c1.216,0.873 2.823,1.309 4.823,1.309c1.865,0 3.371,-0.41 4.52,-1.23c1.149,-0.821 1.723,-1.858 1.723,-3.111Z" style="fill-rule:nonzero;"/><path d="M393.203,277.712l-14.793,-0l-3.357,9.131l-2.887,-0l12.331,-32.585l2.618,-0l12.331,32.585l-2.864,-0l-3.379,-9.131Zm-13.943,-2.35l13.07,-0l-6.535,-17.747l-6.535,17.747Z" style="fill-rule:nonzero;"/><path d="M419.257,280.688c-0,-1.328 -0.534,-2.394 -1.6,-3.2c-1.067,-0.806 -2.675,-1.436 -4.823,-1.891c-2.148,-0.455 -3.816,-0.977 -5.002,-1.567c-1.186,-0.589 -2.066,-1.309 -2.641,-2.159c-0.574,-0.851 -0.861,-1.88 -0.861,-3.089c-0,-1.909 0.798,-3.487 2.394,-4.733c1.597,-1.246 3.641,-1.869 6.132,-1.869c2.701,0 4.868,0.668 6.502,2.003c1.633,1.336 2.45,3.077 2.45,5.226l-2.685,-0c-0,-1.418 -0.593,-2.596 -1.78,-3.536c-1.186,-0.94 -2.681,-1.41 -4.487,-1.41c-1.76,-0 -3.174,0.392 -4.241,1.175c-1.066,0.783 -1.6,1.801 -1.6,3.055c0,1.208 0.444,2.144 1.332,2.808c0.888,0.664 2.506,1.272 4.856,1.824c2.35,0.552 4.111,1.142 5.282,1.768c1.171,0.627 2.04,1.38 2.607,2.261c0.567,0.88 0.85,1.947 0.85,3.2c0,2.044 -0.824,3.678 -2.473,4.901c-1.648,1.223 -3.8,1.835 -6.456,1.835c-2.82,0 -5.106,-0.682 -6.859,-2.048c-1.753,-1.365 -2.63,-3.092 -2.63,-5.18l2.686,-0c0.104,1.566 0.764,2.786 1.98,3.659c1.216,0.872 2.824,1.309 4.823,1.309c1.865,-0 3.372,-0.41 4.521,-1.231c1.148,-0.821 1.723,-1.858 1.723,-3.111Z" style="fill-rule:nonzero;"/><path d="M443.61,280.688c0,-1.328 -0.533,-2.394 -1.6,-3.2c-1.067,-0.806 -2.674,-1.436 -4.823,-1.891c-2.148,-0.455 -3.815,-0.977 -5.001,-1.567c-1.187,-0.589 -2.067,-1.309 -2.641,-2.159c-0.575,-0.851 -0.862,-1.88 -0.862,-3.089c0,-1.909 0.798,-3.487 2.395,-4.733c1.596,-1.246 3.64,-1.869 6.132,-1.869c2.7,0 4.867,0.668 6.501,2.003c1.634,1.336 2.451,3.077 2.451,5.226l-2.686,-0c0,-1.418 -0.593,-2.596 -1.779,-3.536c-1.186,-0.94 -2.682,-1.41 -4.487,-1.41c-1.761,-0 -3.174,0.392 -4.241,1.175c-1.067,0.783 -1.6,1.801 -1.6,3.055c-0,1.208 0.444,2.144 1.331,2.808c0.888,0.664 2.507,1.272 4.857,1.824c2.349,0.552 4.11,1.142 5.281,1.768c1.171,0.627 2.04,1.38 2.607,2.261c0.567,0.88 0.851,1.947 0.851,3.2c-0,2.044 -0.824,3.678 -2.473,4.901c-1.649,1.223 -3.801,1.835 -6.457,1.835c-2.819,0 -5.106,-0.682 -6.859,-2.048c-1.753,-1.365 -2.63,-3.092 -2.63,-5.18l2.686,-0c0.104,1.566 0.765,2.786 1.981,3.659c1.216,0.872 2.823,1.309 4.822,1.309c1.865,-0 3.372,-0.41 4.521,-1.231c1.149,-0.821 1.723,-1.858 1.723,-3.111Z" style="fill-rule:nonzero;"/><path d="M451.985,274.377c-0,-2.327 0.451,-4.424 1.354,-6.289c0.902,-1.864 2.178,-3.315 3.827,-4.352c1.648,-1.037 3.517,-1.556 5.606,-1.556c3.222,0 5.833,1.13 7.833,3.391c1.999,2.26 2.998,5.255 2.998,8.985l0,0.56c0,2.342 -0.451,4.449 -1.354,6.322c-0.902,1.872 -2.174,3.316 -3.815,4.33c-1.641,1.015 -3.514,1.522 -5.618,1.522c-3.207,0 -5.815,-1.13 -7.821,-3.39c-2.007,-2.261 -3.01,-5.256 -3.01,-8.986l-0,-0.537Zm2.685,0.739c0,2.894 0.75,5.27 2.249,7.128c1.5,1.857 3.466,2.786 5.897,2.786c2.417,-0 4.376,-0.929 5.875,-2.786c1.5,-1.858 2.249,-4.309 2.249,-7.352l0,-0.515c0,-1.85 -0.343,-3.543 -1.029,-5.08c-0.687,-1.537 -1.649,-2.727 -2.887,-3.57c-1.239,-0.843 -2.656,-1.264 -4.252,-1.264c-2.387,-0 -4.334,0.936 -5.841,2.809c-1.507,1.872 -2.261,4.323 -2.261,7.351l0,0.493Z" style="fill-rule:nonzero;"/><path d="M489.229,285.03c1.865,-0 3.428,-0.526 4.688,-1.578c1.261,-1.052 1.944,-2.413 2.048,-4.084l2.574,-0c-0.075,1.477 -0.537,2.823 -1.388,4.039c-0.85,1.216 -1.98,2.167 -3.39,2.854c-1.41,0.686 -2.921,1.029 -4.532,1.029c-3.178,0 -5.696,-1.104 -7.553,-3.312c-1.858,-2.208 -2.787,-5.177 -2.787,-8.907l0,-0.806c0,-2.387 0.418,-4.498 1.254,-6.333c0.835,-1.835 2.033,-3.253 3.592,-4.252c1.559,-1 3.383,-1.5 5.471,-1.5c2.656,0 4.846,0.791 6.569,2.373c1.723,1.581 2.644,3.662 2.764,6.243l-2.574,0c-0.119,-1.894 -0.802,-3.424 -2.048,-4.587c-1.245,-1.164 -2.816,-1.746 -4.711,-1.746c-2.417,-0 -4.293,0.873 -5.628,2.618c-1.335,1.746 -2.003,4.193 -2.003,7.341l-0,0.783c-0,3.089 0.668,5.498 2.003,7.229c1.335,1.73 3.219,2.596 5.651,2.596Z" style="fill-rule:nonzero;"/><path d="M508.032,286.843l-2.685,-0l-0,-24.215l2.685,-0l0,24.215Zm-3.155,-31.22c-0,-0.507 0.164,-0.936 0.492,-1.287c0.328,-0.35 0.776,-0.526 1.343,-0.526c0.567,0 1.018,0.176 1.354,0.526c0.335,0.351 0.503,0.78 0.503,1.287c0,0.507 -0.168,0.933 -0.503,1.276c-0.336,0.343 -0.787,0.514 -1.354,0.514c-0.567,0 -1.015,-0.171 -1.343,-0.514c-0.328,-0.343 -0.492,-0.769 -0.492,-1.276Z" style="fill-rule:nonzero;"/><path d="M531.737,286.843c-0.269,-0.761 -0.441,-1.888 -0.515,-3.38c-0.94,1.224 -2.137,2.167 -3.592,2.831c-1.455,0.664 -2.995,0.996 -4.621,0.996c-2.328,0 -4.212,-0.649 -5.651,-1.947c-1.44,-1.298 -2.16,-2.939 -2.16,-4.923c0,-2.358 0.981,-4.223 2.943,-5.595c1.962,-1.373 4.696,-2.059 8.202,-2.059l4.856,-0l0,-2.753c0,-1.731 -0.533,-3.092 -1.6,-4.084c-1.066,-0.992 -2.622,-1.488 -4.666,-1.488c-1.865,-0 -3.409,0.477 -4.632,1.432c-1.224,0.955 -1.836,2.104 -1.836,3.446l-2.685,-0.022c-0,-1.925 0.895,-3.592 2.685,-5.002c1.791,-1.41 3.991,-2.115 6.602,-2.115c2.701,0 4.831,0.675 6.39,2.026c1.559,1.35 2.361,3.233 2.406,5.65l-0,11.459c-0,2.342 0.246,4.095 0.738,5.259l0,0.269l-2.864,-0Zm-8.415,-1.925c1.79,-0 3.39,-0.433 4.8,-1.298c1.41,-0.865 2.436,-2.022 3.077,-3.469l0,-5.326l-4.789,-0c-2.67,0.03 -4.759,0.518 -6.266,1.466c-1.507,0.947 -2.26,2.249 -2.26,3.905c-0,1.358 0.503,2.484 1.51,3.379c1.007,0.895 2.316,1.343 3.928,1.343Z" style="fill-rule:nonzero;"/><path d="M543.915,284.582l15.733,0l0,2.261l-19.045,-0l0,-1.97l14.681,-19.94l-14.233,-0l-0,-2.305l17.613,-0l-0,1.992l-14.749,19.962Z" style="fill-rule:nonzero;"/><path d="M568.582,286.843l-2.685,-0l-0,-24.215l2.685,-0l0,24.215Zm-3.155,-31.22c-0,-0.507 0.164,-0.936 0.492,-1.287c0.328,-0.35 0.776,-0.526 1.343,-0.526c0.567,0 1.018,0.176 1.354,0.526c0.335,0.351 0.503,0.78 0.503,1.287c0,0.507 -0.168,0.933 -0.503,1.276c-0.336,0.343 -0.787,0.514 -1.354,0.514c-0.567,0 -1.015,-0.171 -1.343,-0.514c-0.328,-0.343 -0.492,-0.769 -0.492,-1.276Z" style="fill-rule:nonzero;"/><path d="M575.524,274.377c0,-2.327 0.452,-4.424 1.354,-6.289c0.903,-1.864 2.179,-3.315 3.827,-4.352c1.649,-1.037 3.518,-1.556 5.606,-1.556c3.223,0 5.834,1.13 7.833,3.391c1.999,2.26 2.999,5.255 2.999,8.985l0,0.56c0,2.342 -0.451,4.449 -1.354,6.322c-0.903,1.872 -2.174,3.316 -3.816,4.33c-1.641,1.015 -3.513,1.522 -5.617,1.522c-3.208,0 -5.815,-1.13 -7.822,-3.39c-2.006,-2.261 -3.01,-5.256 -3.01,-8.986l0,-0.537Zm2.686,0.739c-0,2.894 0.75,5.27 2.249,7.128c1.499,1.857 3.465,2.786 5.897,2.786c2.417,-0 4.375,-0.929 5.875,-2.786c1.499,-1.858 2.249,-4.309 2.249,-7.352l-0,-0.515c-0,-1.85 -0.343,-3.543 -1.03,-5.08c-0.686,-1.537 -1.648,-2.727 -2.887,-3.57c-1.238,-0.843 -2.655,-1.264 -4.252,-1.264c-2.387,-0 -4.334,0.936 -5.841,2.809c-1.507,1.872 -2.26,4.323 -2.26,7.351l-0,0.493Z" style="fill-rule:nonzero;"/><path d="M606.368,262.628l0.089,4.14c0.91,-1.492 2.044,-2.63 3.402,-3.413c1.358,-0.783 2.857,-1.175 4.498,-1.175c2.596,0 4.529,0.731 5.797,2.193c1.268,1.463 1.909,3.656 1.924,6.58l0,15.89l-2.663,-0l0,-15.912c-0.015,-2.164 -0.474,-3.775 -1.376,-4.834c-0.903,-1.06 -2.346,-1.589 -4.331,-1.589c-1.656,-0 -3.122,0.518 -4.397,1.555c-1.276,1.037 -2.22,2.436 -2.831,4.196l-0,16.584l-2.663,-0l-0,-24.215l2.551,-0Z" style="fill-rule:nonzero;"/><path d="M639.516,287.29c-2.058,0 -3.92,-0.507 -5.583,-1.522c-1.664,-1.014 -2.958,-2.428 -3.883,-4.241c-0.925,-1.812 -1.388,-3.845 -1.388,-6.098l0,-0.962c0,-2.328 0.452,-4.424 1.354,-6.289c0.903,-1.865 2.16,-3.331 3.771,-4.398c1.612,-1.066 3.357,-1.6 5.237,-1.6c2.939,0 5.271,1.004 6.994,3.01c1.723,2.007 2.585,4.749 2.585,8.225l-0,1.499l-17.277,0l-0,0.515c-0,2.745 0.787,5.032 2.361,6.859c1.574,1.828 3.554,2.742 5.941,2.742c1.433,-0 2.697,-0.261 3.794,-0.783c1.096,-0.523 2.092,-1.358 2.987,-2.507l1.679,1.276c-1.97,2.849 -4.827,4.274 -8.572,4.274Zm-0.492,-22.827c-2.014,-0 -3.711,0.739 -5.091,2.216c-1.38,1.477 -2.22,3.461 -2.518,5.953l14.524,-0l0,-0.291c-0.074,-2.328 -0.738,-4.223 -1.991,-5.685c-1.254,-1.462 -2.895,-2.193 -4.924,-2.193Z" style="fill-rule:nonzero;"/><path d="M686.746,274.981c0,3.775 -0.835,6.77 -2.506,8.986c-1.671,2.215 -3.917,3.323 -6.736,3.323c-3.372,0 -5.924,-1.253 -7.654,-3.76l-0.112,3.313l-2.507,-0l0,-34.375l2.663,-0l0,13.673c1.701,-2.64 4.223,-3.961 7.565,-3.961c2.864,0 5.128,1.093 6.792,3.279c1.664,2.186 2.495,5.226 2.495,9.12l0,0.402Zm-2.685,-0.47c-0,-3.192 -0.619,-5.658 -1.858,-7.396c-1.238,-1.738 -2.984,-2.607 -5.237,-2.607c-1.715,-0 -3.17,0.421 -4.364,1.264c-1.193,0.843 -2.096,2.078 -2.708,3.704l0,10.921c1.343,3.044 3.715,4.566 7.117,4.566c2.208,-0 3.935,-0.873 5.181,-2.619c1.246,-1.745 1.869,-4.356 1.869,-7.833Z" style="fill-rule:nonzero;"/><path d="M709.086,286.843c-0.269,-0.761 -0.441,-1.888 -0.515,-3.38c-0.94,1.224 -2.137,2.167 -3.592,2.831c-1.455,0.664 -2.995,0.996 -4.621,0.996c-2.328,0 -4.212,-0.649 -5.651,-1.947c-1.44,-1.298 -2.16,-2.939 -2.16,-4.923c0,-2.358 0.981,-4.223 2.943,-5.595c1.962,-1.373 4.696,-2.059 8.202,-2.059l4.856,-0l0,-2.753c0,-1.731 -0.533,-3.092 -1.6,-4.084c-1.066,-0.992 -2.622,-1.488 -4.666,-1.488c-1.865,-0 -3.409,0.477 -4.632,1.432c-1.224,0.955 -1.836,2.104 -1.836,3.446l-2.685,-0.022c-0,-1.925 0.895,-3.592 2.685,-5.002c1.791,-1.41 3.992,-2.115 6.602,-2.115c2.701,0 4.831,0.675 6.39,2.026c1.559,1.35 2.361,3.233 2.406,5.65l-0,11.459c-0,2.342 0.246,4.095 0.738,5.259l0,0.269l-2.864,-0Zm-8.415,-1.925c1.79,-0 3.39,-0.433 4.8,-1.298c1.41,-0.865 2.436,-2.022 3.077,-3.469l0,-5.326l-4.789,-0c-2.67,0.03 -4.759,0.518 -6.266,1.466c-1.507,0.947 -2.26,2.249 -2.26,3.905c-0,1.358 0.503,2.484 1.51,3.379c1.007,0.895 2.317,1.343 3.928,1.343Z" style="fill-rule:nonzero;"/><path d="M722.048,262.628l0.089,4.14c0.91,-1.492 2.044,-2.63 3.402,-3.413c1.358,-0.783 2.857,-1.175 4.498,-1.175c2.596,0 4.528,0.731 5.797,2.193c1.268,1.463 1.909,3.656 1.924,6.58l0,15.89l-2.663,-0l0,-15.912c-0.015,-2.164 -0.474,-3.775 -1.376,-4.834c-0.903,-1.06 -2.346,-1.589 -4.331,-1.589c-1.656,-0 -3.122,0.518 -4.397,1.555c-1.276,1.037 -2.22,2.436 -2.831,4.196l-0,16.584l-2.663,-0l-0,-24.215l2.551,-0Z" style="fill-rule:nonzero;"/><path d="M744.745,274.511c0,-3.759 0.839,-6.754 2.518,-8.985c1.678,-2.23 3.957,-3.346 6.837,-3.346c3.267,0 5.759,1.291 7.475,3.872l-0,-13.584l2.663,-0l-0,34.375l-2.507,-0l-0.112,-3.223c-1.715,2.447 -4.237,3.67 -7.564,3.67c-2.79,0 -5.039,-1.123 -6.747,-3.368c-1.709,-2.245 -2.563,-5.278 -2.563,-9.097l0,-0.314Zm2.708,0.47c0,3.089 0.619,5.524 1.858,7.307c1.238,1.783 2.984,2.675 5.236,2.675c3.298,-0 5.64,-1.455 7.028,-4.364l-0,-11.369c-1.388,-3.148 -3.715,-4.722 -6.983,-4.722c-2.253,-0 -4.006,0.884 -5.259,2.652c-1.253,1.768 -1.88,4.375 -1.88,7.821Z" style="fill-rule:nonzero;"/><path d="M775.432,286.843l-2.686,-0l0,-24.215l2.686,-0l0,24.215Zm-3.156,-31.22c0,-0.507 0.165,-0.936 0.493,-1.287c0.328,-0.35 0.776,-0.526 1.343,-0.526c0.567,0 1.018,0.176 1.354,0.526c0.335,0.351 0.503,0.78 0.503,1.287c0,0.507 -0.168,0.933 -0.503,1.276c-0.336,0.343 -0.787,0.514 -1.354,0.514c-0.567,0 -1.015,-0.171 -1.343,-0.514c-0.328,-0.343 -0.493,-0.769 -0.493,-1.276Z" style="fill-rule:nonzero;"/><path d="M798.353,280.688c0,-1.328 -0.533,-2.394 -1.6,-3.2c-1.067,-0.806 -2.674,-1.436 -4.823,-1.891c-2.148,-0.455 -3.816,-0.977 -5.002,-1.567c-1.186,-0.589 -2.066,-1.309 -2.64,-2.159c-0.575,-0.851 -0.862,-1.88 -0.862,-3.089c-0,-1.909 0.798,-3.487 2.395,-4.733c1.596,-1.246 3.64,-1.869 6.132,-1.869c2.7,0 4.867,0.668 6.501,2.003c1.634,1.336 2.45,3.077 2.45,5.226l-2.685,-0c-0,-1.418 -0.593,-2.596 -1.779,-3.536c-1.186,-0.94 -2.682,-1.41 -4.487,-1.41c-1.761,-0 -3.175,0.392 -4.241,1.175c-1.067,0.783 -1.6,1.801 -1.6,3.055c-0,1.208 0.443,2.144 1.331,2.808c0.888,0.664 2.507,1.272 4.856,1.824c2.35,0.552 4.111,1.142 5.282,1.768c1.171,0.627 2.04,1.38 2.607,2.261c0.567,0.88 0.851,1.947 0.851,3.2c-0,2.044 -0.825,3.678 -2.473,4.901c-1.649,1.223 -3.801,1.835 -6.457,1.835c-2.82,0 -5.106,-0.682 -6.859,-2.048c-1.753,-1.365 -2.63,-3.092 -2.63,-5.18l2.686,-0c0.104,1.566 0.764,2.786 1.98,3.659c1.216,0.872 2.824,1.309 4.823,1.309c1.865,-0 3.372,-0.41 4.521,-1.231c1.149,-0.821 1.723,-1.858 1.723,-3.111Z" style="fill-rule:nonzero;"/><path d="M812.367,256.429l0,6.199l5.013,-0l0,2.193l-5.013,0l0,16.136c0,1.342 0.243,2.342 0.728,2.999c0.484,0.656 1.294,0.984 2.428,0.984c0.447,0 1.171,-0.074 2.171,-0.224l0.111,2.194c-0.701,0.253 -1.656,0.38 -2.864,0.38c-1.835,0 -3.171,-0.533 -4.006,-1.6c-0.836,-1.067 -1.253,-2.637 -1.253,-4.711l-0,-16.158l-4.454,0l0,-2.193l4.454,-0l-0,-6.199l2.685,-0Z" style="fill-rule:nonzero;"/><path d="M827.075,286.843l-2.685,-0l-0,-24.215l2.685,-0l0,24.215Zm-3.155,-31.22c-0,-0.507 0.164,-0.936 0.492,-1.287c0.328,-0.35 0.776,-0.526 1.343,-0.526c0.567,0 1.018,0.176 1.354,0.526c0.335,0.351 0.503,0.78 0.503,1.287c0,0.507 -0.168,0.933 -0.503,1.276c-0.336,0.343 -0.787,0.514 -1.354,0.514c-0.567,0 -1.015,-0.171 -1.343,-0.514c-0.328,-0.343 -0.492,-0.769 -0.492,-1.276Z" style="fill-rule:nonzero;"/><path d="M844.446,285.03c1.865,-0 3.428,-0.526 4.689,-1.578c1.26,-1.052 1.943,-2.413 2.047,-4.084l2.574,-0c-0.075,1.477 -0.537,2.823 -1.388,4.039c-0.85,1.216 -1.98,2.167 -3.39,2.854c-1.41,0.686 -2.921,1.029 -4.532,1.029c-3.178,0 -5.696,-1.104 -7.553,-3.312c-1.858,-2.208 -2.786,-5.177 -2.786,-8.907l-0,-0.806c-0,-2.387 0.417,-4.498 1.253,-6.333c0.835,-1.835 2.033,-3.253 3.592,-4.252c1.559,-1 3.383,-1.5 5.472,-1.5c2.655,0 4.845,0.791 6.568,2.373c1.723,1.581 2.645,3.662 2.764,6.243l-2.574,0c-0.119,-1.894 -0.802,-3.424 -2.047,-4.587c-1.246,-1.164 -2.816,-1.746 -4.711,-1.746c-2.417,-0 -4.293,0.873 -5.629,2.618c-1.335,1.746 -2.003,4.193 -2.003,7.341l0,0.783c0,3.089 0.668,5.498 2.003,7.229c1.336,1.73 3.219,2.596 5.651,2.596Z" style="fill-rule:nonzero;"/><path d="M875.536,286.843c-0.269,-0.761 -0.44,-1.888 -0.515,-3.38c-0.94,1.224 -2.137,2.167 -3.592,2.831c-1.455,0.664 -2.995,0.996 -4.621,0.996c-2.328,0 -4.211,-0.649 -5.651,-1.947c-1.44,-1.298 -2.16,-2.939 -2.16,-4.923c0,-2.358 0.981,-4.223 2.943,-5.595c1.962,-1.373 4.696,-2.059 8.202,-2.059l4.857,-0l-0,-2.753c-0,-1.731 -0.534,-3.092 -1.6,-4.084c-1.067,-0.992 -2.623,-1.488 -4.667,-1.488c-1.865,-0 -3.409,0.477 -4.632,1.432c-1.224,0.955 -1.835,2.104 -1.835,3.446l-2.686,-0.022c0,-1.925 0.895,-3.592 2.686,-5.002c1.79,-1.41 3.991,-2.115 6.602,-2.115c2.7,0 4.83,0.675 6.389,2.026c1.559,1.35 2.361,3.233 2.406,5.65l-0,11.459c-0,2.342 0.246,4.095 0.738,5.259l0,0.269l-2.864,-0Zm-8.415,-1.925c1.79,-0 3.391,-0.433 4.8,-1.298c1.41,-0.865 2.436,-2.022 3.078,-3.469l-0,-5.326l-4.79,-0c-2.67,0.03 -4.759,0.518 -6.266,1.466c-1.507,0.947 -2.26,2.249 -2.26,3.905c-0,1.358 0.503,2.484 1.51,3.379c1.008,0.895 2.317,1.343 3.928,1.343Z" style="fill-rule:nonzero;"/><path d="M912.74,280.688c-0,-1.328 -0.534,-2.394 -1.601,-3.2c-1.066,-0.806 -2.674,-1.436 -4.822,-1.891c-2.149,-0.455 -3.816,-0.977 -5.002,-1.567c-1.186,-0.589 -2.067,-1.309 -2.641,-2.159c-0.574,-0.851 -0.862,-1.88 -0.862,-3.089c0,-1.909 0.799,-3.487 2.395,-4.733c1.596,-1.246 3.64,-1.869 6.132,-1.869c2.7,0 4.868,0.668 6.501,2.003c1.634,1.336 2.451,3.077 2.451,5.226l-2.686,-0c0,-1.418 -0.593,-2.596 -1.779,-3.536c-1.186,-0.94 -2.682,-1.41 -4.487,-1.41c-1.761,-0 -3.174,0.392 -4.241,1.175c-1.067,0.783 -1.6,1.801 -1.6,3.055c-0,1.208 0.444,2.144 1.332,2.808c0.887,0.664 2.506,1.272 4.856,1.824c2.35,0.552 4.11,1.142 5.281,1.768c1.172,0.627 2.041,1.38 2.608,2.261c0.567,0.88 0.85,1.947 0.85,3.2c0,2.044 -0.824,3.678 -2.473,4.901c-1.648,1.223 -3.801,1.835 -6.456,1.835c-2.82,0 -5.107,-0.682 -6.86,-2.048c-1.753,-1.365 -2.629,-3.092 -2.629,-5.18l2.685,-0c0.105,1.566 0.765,2.786 1.981,3.659c1.216,0.872 2.823,1.309 4.823,1.309c1.865,-0 3.371,-0.41 4.52,-1.231c1.149,-0.821 1.724,-1.858 1.724,-3.111Z" style="fill-rule:nonzero;"/><path d="M930.133,283.15l7.363,-20.522l2.752,-0l-9.041,24.215l-2.171,-0l-9.086,-24.215l2.753,-0l7.43,20.522Z" style="fill-rule:nonzero;"/><path d="M948.78,286.843l-2.686,-0l0,-24.215l2.686,-0l-0,24.215Zm-3.156,-31.22c0,-0.507 0.164,-0.936 0.492,-1.287c0.329,-0.35 0.776,-0.526 1.343,-0.526c0.567,0 1.018,0.176 1.354,0.526c0.336,0.351 0.504,0.78 0.504,1.287c-0,0.507 -0.168,0.933 -0.504,1.276c-0.336,0.343 -0.787,0.514 -1.354,0.514c-0.567,0 -1.014,-0.171 -1.343,-0.514c-0.328,-0.343 -0.492,-0.769 -0.492,-1.276Z" style="fill-rule:nonzero;"/><path d="M958.967,284.582l15.733,0l-0,2.261l-19.045,-0l-0,-1.97l14.681,-19.94l-14.234,-0l0,-2.305l17.613,-0l-0,1.992l-14.748,19.962Z" style="fill-rule:nonzero;"/><path d="M982.403,284.582l15.732,0l0,2.261l-19.045,-0l0,-1.97l14.681,-19.94l-14.233,-0l0,-2.305l17.613,-0l-0,1.992l-14.748,19.962Z" style="fill-rule:nonzero;"/><path d="M1013.45,287.29c-2.059,0 -3.921,-0.507 -5.584,-1.522c-1.664,-1.014 -2.958,-2.428 -3.883,-4.241c-0.925,-1.812 -1.388,-3.845 -1.388,-6.098l0,-0.962c0,-2.328 0.452,-4.424 1.354,-6.289c0.903,-1.865 2.16,-3.331 3.771,-4.398c1.612,-1.066 3.357,-1.6 5.237,-1.6c2.939,0 5.271,1.004 6.994,3.01c1.723,2.007 2.585,4.749 2.585,8.225l-0,1.499l-17.277,0l-0,0.515c-0,2.745 0.787,5.032 2.361,6.859c1.574,1.828 3.554,2.742 5.941,2.742c1.433,-0 2.697,-0.261 3.794,-0.783c1.096,-0.523 2.092,-1.358 2.987,-2.507l1.679,1.276c-1.969,2.849 -4.827,4.274 -8.571,4.274Zm-0.493,-22.827c-2.014,-0 -3.711,0.739 -5.091,2.216c-1.38,1.477 -2.219,3.461 -2.518,5.953l14.524,-0l0,-0.291c-0.074,-2.328 -0.738,-4.223 -1.991,-5.685c-1.254,-1.462 -2.895,-2.193 -4.924,-2.193Z" style="fill-rule:nonzero;"/><path d="M1040.08,264.911c-0.567,-0.105 -1.172,-0.157 -1.813,-0.157c-1.671,-0 -3.085,0.466 -4.241,1.399c-1.156,0.932 -1.981,2.286 -2.473,4.062l0,16.628l-2.663,-0l-0,-24.215l2.618,-0l0.045,3.849c1.417,-2.864 3.693,-4.297 6.826,-4.297c0.746,0 1.335,0.097 1.768,0.291l-0.067,2.44Z" style="fill-rule:nonzero;"/><path d="M1060.75,286.843c-0.269,-0.761 -0.441,-1.888 -0.515,-3.38c-0.94,1.224 -2.137,2.167 -3.592,2.831c-1.455,0.664 -2.995,0.996 -4.622,0.996c-2.327,0 -4.211,-0.649 -5.65,-1.947c-1.44,-1.298 -2.16,-2.939 -2.16,-4.923c0,-2.358 0.981,-4.223 2.943,-5.595c1.962,-1.373 4.696,-2.059 8.202,-2.059l4.856,-0l0,-2.753c0,-1.731 -0.533,-3.092 -1.6,-4.084c-1.067,-0.992 -2.622,-1.488 -4.666,-1.488c-1.865,-0 -3.409,0.477 -4.632,1.432c-1.224,0.955 -1.836,2.104 -1.836,3.446l-2.685,-0.022c-0,-1.925 0.895,-3.592 2.685,-5.002c1.791,-1.41 3.991,-2.115 6.602,-2.115c2.701,0 4.831,0.675 6.39,2.026c1.559,1.35 2.361,3.233 2.406,5.65l-0,11.459c-0,2.342 0.246,4.095 0.738,5.259l0,0.269l-2.864,-0Zm-8.415,-1.925c1.79,-0 3.39,-0.433 4.8,-1.298c1.41,-0.865 2.436,-2.022 3.077,-3.469l0,-5.326l-4.789,-0c-2.67,0.03 -4.759,0.518 -6.266,1.466c-1.507,0.947 -2.26,2.249 -2.26,3.905c-0,1.358 0.503,2.484 1.51,3.379c1.007,0.895 2.316,1.343 3.928,1.343Z" style="fill-rule:nonzero;"/><path d="M394.932,300.091l0,22.246c-0.015,2.193 -0.5,4.102 -1.455,5.729c-0.954,1.626 -2.301,2.875 -4.039,3.748c-1.738,0.873 -3.734,1.309 -5.987,1.309c-3.431,0 -6.18,-0.936 -8.246,-2.808c-2.067,-1.873 -3.137,-4.465 -3.212,-7.777l0,-22.447l2.73,0l0,22.044c0,2.745 0.784,4.875 2.35,6.389c1.567,1.515 3.693,2.272 6.378,2.272c2.686,-0 4.808,-0.761 6.367,-2.283c1.559,-1.522 2.339,-3.64 2.339,-6.356l0,-22.066l2.775,0Z" style="fill-rule:nonzero;"/><path d="M405.679,308.461l0.089,4.14c0.91,-1.492 2.044,-2.629 3.402,-3.412c1.358,-0.784 2.857,-1.175 4.498,-1.175c2.596,-0 4.528,0.731 5.797,2.193c1.268,1.462 1.909,3.655 1.924,6.579l0,15.89l-2.663,-0l0,-15.912c-0.015,-2.163 -0.474,-3.775 -1.376,-4.834c-0.903,-1.059 -2.346,-1.589 -4.331,-1.589c-1.656,0 -3.122,0.519 -4.397,1.555c-1.276,1.037 -2.22,2.436 -2.831,4.197l-0,16.583l-2.664,-0l0,-24.215l2.552,0Z" style="fill-rule:nonzero;"/><path d="M432.449,332.676l-2.685,-0l-0,-24.215l2.685,0l0,24.215Zm-3.155,-31.22c-0,-0.507 0.164,-0.936 0.492,-1.286c0.328,-0.351 0.776,-0.526 1.343,-0.526c0.567,-0 1.018,0.175 1.354,0.526c0.335,0.35 0.503,0.779 0.503,1.286c0,0.508 -0.168,0.933 -0.503,1.276c-0.336,0.343 -0.787,0.515 -1.354,0.515c-0.567,-0 -1.015,-0.172 -1.343,-0.515c-0.328,-0.343 -0.492,-0.768 -0.492,-1.276Z" style="fill-rule:nonzero;"/><path d="M456.445,329.61c-1.612,2.342 -4.185,3.513 -7.721,3.513c-2.582,0 -4.543,-0.749 -5.886,-2.249c-1.343,-1.499 -2.029,-3.718 -2.059,-6.658l-0,-15.755l2.663,0l0,15.42c0,4.61 1.865,6.915 5.595,6.915c3.879,-0 6.333,-1.604 7.363,-4.812l-0,-17.523l2.685,0l0,24.215l-2.596,-0l-0.044,-3.066Z" style="fill-rule:nonzero;"/><path d="M469.742,308.461l0.09,4.14c0.91,-1.492 2.044,-2.629 3.402,-3.412c1.357,-0.784 2.857,-1.175 4.498,-1.175c2.596,-0 4.528,0.731 5.796,2.193c1.268,1.462 1.91,3.655 1.925,6.579l-0,15.89l-2.663,-0l-0,-15.912c-0.015,-2.163 -0.474,-3.775 -1.377,-4.834c-0.902,-1.059 -2.346,-1.589 -4.33,-1.589c-1.656,0 -3.122,0.519 -4.398,1.555c-1.275,1.037 -2.219,2.436 -2.831,4.197l0,16.583l-2.663,-0l0,-24.215l2.551,0Z" style="fill-rule:nonzero;"/><path d="M520.307,326.521c-0,-1.327 -0.534,-2.394 -1.6,-3.2c-1.067,-0.805 -2.675,-1.436 -4.823,-1.891c-2.149,-0.455 -3.816,-0.977 -5.002,-1.566c-1.186,-0.59 -2.066,-1.31 -2.641,-2.16c-0.574,-0.85 -0.861,-1.88 -0.861,-3.088c-0,-1.91 0.798,-3.488 2.394,-4.734c1.597,-1.246 3.641,-1.868 6.132,-1.868c2.701,-0 4.868,0.667 6.502,2.003c1.633,1.335 2.45,3.077 2.45,5.225l-2.685,0c-0,-1.417 -0.593,-2.596 -1.78,-3.536c-1.186,-0.94 -2.681,-1.41 -4.487,-1.41c-1.76,0 -3.174,0.392 -4.241,1.175c-1.066,0.784 -1.6,1.802 -1.6,3.055c0,1.209 0.444,2.145 1.332,2.809c0.888,0.664 2.506,1.272 4.856,1.824c2.35,0.552 4.111,1.141 5.282,1.768c1.171,0.626 2.04,1.38 2.607,2.26c0.567,0.88 0.85,1.947 0.85,3.2c0,2.044 -0.824,3.678 -2.473,4.901c-1.648,1.224 -3.8,1.835 -6.456,1.835c-2.82,0 -5.106,-0.682 -6.859,-2.047c-1.753,-1.365 -2.63,-3.092 -2.63,-5.181l2.686,-0c0.104,1.566 0.764,2.786 1.98,3.659c1.216,0.873 2.824,1.309 4.823,1.309c1.865,0 3.372,-0.41 4.521,-1.231c1.148,-0.82 1.723,-1.857 1.723,-3.111Z" style="fill-rule:nonzero;"/><path d="M537.7,328.983l7.363,-20.522l2.753,0l-9.042,24.215l-2.17,-0l-9.086,-24.215l2.752,0l7.43,20.522Z" style="fill-rule:nonzero;"/><path d="M556.347,332.676l-2.686,-0l0,-24.215l2.686,0l-0,24.215Zm-3.156,-31.22c0,-0.507 0.164,-0.936 0.493,-1.286c0.328,-0.351 0.776,-0.526 1.342,-0.526c0.567,-0 1.019,0.175 1.354,0.526c0.336,0.35 0.504,0.779 0.504,1.286c-0,0.508 -0.168,0.933 -0.504,1.276c-0.335,0.343 -0.787,0.515 -1.354,0.515c-0.566,-0 -1.014,-0.172 -1.342,-0.515c-0.329,-0.343 -0.493,-0.768 -0.493,-1.276Z" style="fill-rule:nonzero;"/><path d="M566.534,330.416l15.733,-0l-0,2.26l-19.045,-0l-0,-1.97l14.681,-19.94l-14.234,0l0,-2.305l17.613,0l0,1.992l-14.748,19.963Z" style="fill-rule:nonzero;"/><path d="M599.392,310.744c-0.567,-0.105 -1.171,-0.157 -1.813,-0.157c-1.671,0 -3.085,0.466 -4.241,1.399c-1.156,0.932 -1.981,2.286 -2.473,4.062l0,16.628l-2.663,-0l-0,-24.215l2.618,0l0.045,3.849c1.417,-2.864 3.693,-4.296 6.826,-4.296c0.746,-0 1.335,0.097 1.768,0.291l-0.067,2.439Z" style="fill-rule:nonzero;"/><path d="M620.053,332.676c-0.269,-0.761 -0.441,-1.887 -0.515,-3.379c-0.94,1.223 -2.137,2.167 -3.592,2.831c-1.455,0.664 -2.995,0.995 -4.622,0.995c-2.327,0 -4.211,-0.649 -5.65,-1.947c-1.44,-1.298 -2.16,-2.939 -2.16,-4.923c0,-2.357 0.981,-4.222 2.943,-5.595c1.962,-1.373 4.696,-2.059 8.202,-2.059l4.856,0l0,-2.753c0,-1.73 -0.533,-3.092 -1.6,-4.084c-1.066,-0.992 -2.622,-1.488 -4.666,-1.488c-1.865,-0 -3.409,0.477 -4.632,1.432c-1.224,0.955 -1.836,2.104 -1.836,3.447l-2.685,-0.023c-0,-1.924 0.895,-3.592 2.685,-5.002c1.791,-1.409 3.991,-2.114 6.602,-2.114c2.701,-0 4.831,0.675 6.39,2.025c1.559,1.35 2.361,3.234 2.406,5.651l-0,11.458c-0,2.343 0.246,4.096 0.738,5.259l0,0.269l-2.864,-0Zm-8.415,-1.925c1.79,0 3.39,-0.432 4.8,-1.298c1.41,-0.865 2.436,-2.021 3.077,-3.469l0,-5.326l-4.789,0c-2.67,0.03 -4.759,0.519 -6.266,1.466c-1.507,0.947 -2.26,2.249 -2.26,3.905c-0,1.358 0.503,2.484 1.51,3.379c1.007,0.896 2.316,1.343 3.928,1.343Z" style="fill-rule:nonzero;"/><path d="M641.68,320.345c0,-3.76 0.839,-6.755 2.518,-8.986c1.678,-2.23 3.957,-3.345 6.837,-3.345c3.267,-0 5.759,1.29 7.475,3.871l-0,-13.584l2.663,-0l-0,34.375l-2.507,-0l-0.112,-3.223c-1.715,2.447 -4.237,3.67 -7.564,3.67c-2.79,0 -5.039,-1.122 -6.747,-3.368c-1.709,-2.245 -2.563,-5.278 -2.563,-9.097l0,-0.313Zm2.708,0.47c0,3.088 0.619,5.524 1.858,7.307c1.238,1.783 2.984,2.674 5.236,2.674c3.298,-0 5.64,-1.455 7.028,-4.364l-0,-11.369c-1.388,-3.148 -3.715,-4.722 -6.983,-4.722c-2.253,0 -4.006,0.884 -5.259,2.652c-1.253,1.768 -1.88,4.375 -1.88,7.822Z" style="fill-rule:nonzero;"/><path d="M684.653,332.676c-0.268,-0.761 -0.44,-1.887 -0.514,-3.379c-0.94,1.223 -2.138,2.167 -3.592,2.831c-1.455,0.664 -2.995,0.995 -4.622,0.995c-2.327,0 -4.211,-0.649 -5.651,-1.947c-1.439,-1.298 -2.159,-2.939 -2.159,-4.923c-0,-2.357 0.981,-4.222 2.943,-5.595c1.962,-1.373 4.696,-2.059 8.202,-2.059l4.856,0l0,-2.753c0,-1.73 -0.533,-3.092 -1.6,-4.084c-1.067,-0.992 -2.622,-1.488 -4.666,-1.488c-1.865,-0 -3.409,0.477 -4.633,1.432c-1.223,0.955 -1.835,2.104 -1.835,3.447l-2.685,-0.023c-0,-1.924 0.895,-3.592 2.685,-5.002c1.791,-1.409 3.991,-2.114 6.602,-2.114c2.701,-0 4.831,0.675 6.39,2.025c1.559,1.35 2.361,3.234 2.405,5.651l0,11.458c0,2.343 0.247,4.096 0.739,5.259l-0,0.269l-2.865,-0Zm-8.414,-1.925c1.79,0 3.39,-0.432 4.8,-1.298c1.41,-0.865 2.436,-2.021 3.077,-3.469l0,-5.326l-4.789,0c-2.671,0.03 -4.759,0.519 -6.266,1.466c-1.507,0.947 -2.261,2.249 -2.261,3.905c0,1.358 0.504,2.484 1.511,3.379c1.007,0.896 2.316,1.343 3.928,1.343Z" style="fill-rule:nonzero;"/><path d="M709.795,308.461l0.089,3.939c0.895,-1.462 2.014,-2.559 3.357,-3.29c1.343,-0.731 2.835,-1.096 4.476,-1.096c3.819,-0 6.244,1.566 7.273,4.699c0.866,-1.507 2.022,-2.667 3.469,-3.48c1.447,-0.813 3.044,-1.219 4.789,-1.219c5.192,-0 7.841,2.834 7.945,8.504l0,16.158l-2.685,-0l-0,-15.957c-0.015,-2.163 -0.482,-3.767 -1.399,-4.811c-0.918,-1.045 -2.413,-1.567 -4.487,-1.567c-1.925,0.03 -3.551,0.653 -4.879,1.869c-1.328,1.216 -2.066,2.697 -2.216,4.442l0,16.024l-2.685,-0l-0,-16.158c-0.015,-2.074 -0.504,-3.622 -1.466,-4.644c-0.962,-1.022 -2.443,-1.533 -4.442,-1.533c-1.686,0 -3.134,0.481 -4.342,1.444c-1.208,0.962 -2.104,2.39 -2.686,4.285l0,16.606l-2.685,-0l-0,-24.215l2.574,0Z" style="fill-rule:nonzero;"/><path d="M764.696,329.61c-1.611,2.342 -4.185,3.513 -7.721,3.513c-2.581,0 -4.543,-0.749 -5.886,-2.249c-1.342,-1.499 -2.029,-3.718 -2.059,-6.658l0,-15.755l2.664,0l-0,15.42c-0,4.61 1.865,6.915 5.594,6.915c3.88,-0 6.334,-1.604 7.363,-4.812l0,-17.523l2.686,0l-0,24.215l-2.596,-0l-0.045,-3.066Z" style="fill-rule:nonzero;"/><path d="M789.945,326.521c-0,-1.327 -0.534,-2.394 -1.6,-3.2c-1.067,-0.805 -2.675,-1.436 -4.823,-1.891c-2.149,-0.455 -3.816,-0.977 -5.002,-1.566c-1.186,-0.59 -2.066,-1.31 -2.641,-2.16c-0.574,-0.85 -0.861,-1.88 -0.861,-3.088c-0,-1.91 0.798,-3.488 2.394,-4.734c1.597,-1.246 3.641,-1.868 6.132,-1.868c2.701,-0 4.868,0.667 6.501,2.003c1.634,1.335 2.451,3.077 2.451,5.225l-2.686,0c0,-1.417 -0.593,-2.596 -1.779,-3.536c-1.186,-0.94 -2.682,-1.41 -4.487,-1.41c-1.76,0 -3.174,0.392 -4.241,1.175c-1.067,0.784 -1.6,1.802 -1.6,3.055c0,1.209 0.444,2.145 1.332,2.809c0.887,0.664 2.506,1.272 4.856,1.824c2.35,0.552 4.11,1.141 5.282,1.768c1.171,0.626 2.04,1.38 2.607,2.26c0.567,0.88 0.85,1.947 0.85,3.2c0,2.044 -0.824,3.678 -2.473,4.901c-1.648,1.224 -3.8,1.835 -6.456,1.835c-2.82,0 -5.106,-0.682 -6.86,-2.047c-1.753,-1.365 -2.629,-3.092 -2.629,-5.181l2.685,-0c0.105,1.566 0.765,2.786 1.981,3.659c1.216,0.873 2.824,1.309 4.823,1.309c1.865,0 3.372,-0.41 4.52,-1.231c1.149,-0.82 1.724,-1.857 1.724,-3.111Z" style="fill-rule:nonzero;"/><path d="M802.795,332.676l-2.686,-0l0,-24.215l2.686,0l0,24.215Zm-3.155,-31.22c-0,-0.507 0.164,-0.936 0.492,-1.286c0.328,-0.351 0.776,-0.526 1.343,-0.526c0.567,-0 1.018,0.175 1.354,0.526c0.335,0.35 0.503,0.779 0.503,1.286c0,0.508 -0.168,0.933 -0.503,1.276c-0.336,0.343 -0.787,0.515 -1.354,0.515c-0.567,-0 -1.015,-0.172 -1.343,-0.515c-0.328,-0.343 -0.492,-0.768 -0.492,-1.276Z" style="fill-rule:nonzero;"/><path d="M820.166,330.863c1.865,0 3.428,-0.526 4.689,-1.578c1.26,-1.051 1.943,-2.413 2.047,-4.084l2.574,0c-0.075,1.477 -0.537,2.824 -1.388,4.04c-0.85,1.216 -1.98,2.167 -3.39,2.853c-1.41,0.686 -2.921,1.029 -4.532,1.029c-3.178,0 -5.696,-1.104 -7.553,-3.312c-1.858,-2.208 -2.786,-5.177 -2.786,-8.907l-0,-0.805c-0,-2.388 0.417,-4.499 1.253,-6.334c0.835,-1.835 2.033,-3.252 3.592,-4.252c1.559,-1 3.383,-1.499 5.472,-1.499c2.655,-0 4.845,0.79 6.568,2.372c1.723,1.581 2.645,3.663 2.764,6.244l-2.574,-0c-0.119,-1.895 -0.802,-3.424 -2.047,-4.588c-1.246,-1.164 -2.817,-1.746 -4.711,-1.746c-2.417,0 -4.293,0.873 -5.629,2.619c-1.335,1.745 -2.003,4.192 -2.003,7.34l0,0.784c0,3.088 0.668,5.497 2.003,7.228c1.336,1.731 3.219,2.596 5.651,2.596Z" style="fill-rule:nonzero;"/><path d="M851.256,332.676c-0.269,-0.761 -0.44,-1.887 -0.515,-3.379c-0.94,1.223 -2.137,2.167 -3.592,2.831c-1.455,0.664 -2.995,0.995 -4.621,0.995c-2.328,0 -4.211,-0.649 -5.651,-1.947c-1.44,-1.298 -2.16,-2.939 -2.16,-4.923c0,-2.357 0.981,-4.222 2.943,-5.595c1.962,-1.373 4.696,-2.059 8.202,-2.059l4.857,0l-0,-2.753c-0,-1.73 -0.534,-3.092 -1.601,-4.084c-1.066,-0.992 -2.622,-1.488 -4.666,-1.488c-1.865,-0 -3.409,0.477 -4.632,1.432c-1.224,0.955 -1.835,2.104 -1.835,3.447l-2.686,-0.023c0,-1.924 0.895,-3.592 2.686,-5.002c1.79,-1.409 3.991,-2.114 6.602,-2.114c2.7,-0 4.83,0.675 6.389,2.025c1.559,1.35 2.361,3.234 2.406,5.651l-0,11.458c-0,2.343 0.246,4.096 0.738,5.259l0,0.269l-2.864,-0Zm-8.415,-1.925c1.79,0 3.391,-0.432 4.8,-1.298c1.41,-0.865 2.436,-2.021 3.078,-3.469l-0,-5.326l-4.79,0c-2.67,0.03 -4.759,0.519 -6.266,1.466c-1.507,0.947 -2.26,2.249 -2.26,3.905c-0,1.358 0.503,2.484 1.51,3.379c1.007,0.896 2.317,1.343 3.928,1.343Z" style="fill-rule:nonzero;"/></g><g><rect x="0.085" y="0.023" width="333.434" height="333.439" style="fill:#fff;"/><g><clipPath id="_clip1"><rect x="-0" y="-0" width="333.409" height="333.442" clip-rule="nonzero"/></clipPath><g clip-path="url(#_clip1)"><path d="M-0.001,318.149l8.161,8.165c0.655,-0.71 1.31,-1.424 1.955,-2.131l10.902,10.9l3.572,0l-24.59,-24.593l0,7.659Z" style="fill:#c30a0f;fill-rule:nonzero;"/><path d="M75.392,149.462l-75.391,-75.396l0,10.474l38.275,38.279c-0.299,-1.483 -0.616,-2.95 -0.954,-4.411l77.771,77.785c0.557,-0.826 1.1,-1.646 1.632,-2.45l43.292,43.286c-0.812,0.539 -1.628,1.081 -2.455,1.635l21.521,21.519c0.593,-0.961 1.19,-1.919 1.758,-2.862l62.264,62.282c-0.94,0.568 -1.897,1.165 -2.855,1.759l13.724,13.722l13.291,0l-187.602,-187.632c-1.42,0.652 -2.844,1.333 -4.271,2.01" style="fill:#c30a0f;fill-rule:nonzero;"/><path d="M41.404,167.48l-41.406,-41.403l-0,9.265l35.583,35.587c-1.664,0.998 -3.339,2.021 -5.01,3.052l-30.573,-30.573l-0,8.864l25.092,25.092c-1.715,1.086 -3.441,2.2 -5.167,3.307l-19.925,-19.924l-0,8.456l14.795,14.797c-1.77,1.165 -3.543,2.36 -5.317,3.558l-9.478,-9.476l-0,8.055l4.664,4.666c-1.551,1.059 -3.109,2.152 -4.664,3.237l-0,111.552c0.521,-0.951 1.041,-1.898 1.54,-2.841l14.7,14.706c0.652,-0.71 1.304,-1.435 1.948,-2.142l19.766,19.768l3.972,-0l-37.659,-37.663c1.002,-1.967 2.01,-3.937 2.972,-5.904l17.034,17.037c0.641,-0.714 1.293,-1.443 1.93,-2.153l21.149,21.148c-0.714,0.637 -1.435,1.289 -2.156,1.934l5.604,5.601l8.459,-0l-49.293,-49.303c0.903,-1.926 1.817,-3.856 2.691,-5.779l19.594,19.6c0.641,-0.725 1.289,-1.449 1.919,-2.163l22.147,22.138c-0.718,0.638 -1.446,1.286 -2.167,1.923l13.582,13.584l8.863,-0l-61.24,-61.248c0.816,-1.893 1.624,-3.776 2.404,-5.663l22.423,22.423c0.634,-0.725 1.274,-1.453 1.904,-2.174l23.247,23.245c-0.718,0.627 -1.449,1.271 -2.178,1.909l21.51,21.508l9.263,-0l-73.515,-73.524c0.728,-1.857 1.424,-3.707 2.112,-5.55l25.526,25.525c0.63,-0.732 1.267,-1.468 1.893,-2.192l24.463,24.462c-0.725,0.626 -1.46,1.267 -2.192,1.897l29.375,29.382l9.678,-0l-86.154,-86.157c0.634,-1.825 1.213,-3.631 1.814,-5.449l28.934,28.942c0.626,-0.74 1.26,-1.479 1.879,-2.211l25.802,25.81c-0.732,0.611 -1.471,1.249 -2.21,1.871l37.189,37.194l10.075,-0l-99.222,-99.228c0.542,-1.781 1.034,-3.547 1.543,-5.317l32.689,32.692c0.619,-0.739 1.241,-1.485 1.857,-2.221l27.284,27.273c-0.739,0.619 -1.485,1.239 -2.224,1.861l39.395,39.397c0.678,-0.856 1.366,-1.719 2.032,-2.578l8.117,8.121l5.862,-0l-112.772,-112.779c0.444,-1.726 0.892,-3.449 1.3,-5.164l36.825,36.833c0.611,-0.743 1.227,-1.497 1.835,-2.243l28.905,28.901c-0.747,0.608 -1.497,1.227 -2.243,1.835l37.538,37.551c0.67,-0.874 1.348,-1.741 2.01,-2.608l17.676,17.674l6.263,-0l-126.843,-126.858c0.342,-1.683 0.699,-3.365 1.012,-5.037l41.443,41.447c0.608,-0.757 1.212,-1.515 1.813,-2.261l30.693,30.693c-0.754,0.597 -1.511,1.205 -2.265,1.814l35.499,35.5c0.663,-0.882 1.326,-1.763 1.974,-2.637l27.339,27.339l6.671,-0l-141.528,-141.538c0.255,-1.672 0.444,-3.329 0.659,-4.989l46.646,46.651c0.601,-0.769 1.205,-1.537 1.791,-2.284l32.663,32.664c-0.754,0.59 -1.518,1.194 -2.279,1.795l33.249,33.25c0.644,-0.889 1.296,-1.785 1.937,-2.673l37.116,37.124l7.083,-0l-157.062,-157.074c0.138,-1.61 0.309,-3.234 0.415,-4.829l52.482,52.485c0.597,-0.772 1.191,-1.544 1.77,-2.309l34.851,34.856c-0.761,0.575 -1.533,1.176 -2.305,1.774l30.77,30.773c0.637,-0.907 1.267,-1.814 1.893,-2.717l47.035,47.041l7.48,-0l-169.876,-169.89c-1.322,0.758 -2.651,1.515 -3.987,2.287" style="fill:#c30a0f;fill-rule:nonzero;"/><path d="M52.463,161.205l-52.461,-52.474l-0,9.68l41.715,41.72c0,-1.162 0,-2.32 -0.011,-3.471l59.35,59.351c0.576,-0.783 1.151,-1.566 1.723,-2.349l37.309,37.313c-0.779,0.576 -1.559,1.151 -2.345,1.73l28.031,28.035c0.619,-0.925 1.238,-1.843 1.85,-2.757l54.831,54.831c-0.914,0.615 -1.832,1.238 -2.753,1.861l0.408,0.408l12.493,-0l-176.055,-176.07c-1.358,0.721 -2.713,1.435 -4.085,2.192" style="fill:#c30a0f;fill-rule:nonzero;"/><path d="M-0.001,335.083l0.08,-0c0.645,-0.692 1.293,-1.391 1.93,-2.079l2.076,2.079l3.168,-0l-7.254,-7.258l0,7.258Z" style="fill:#c30a0f;fill-rule:nonzero;"/><path d="M63.785,155.193l-63.785,-63.793l-0,10.077l41.078,41.075c-0.128,-1.285 -0.263,-2.571 -0.397,-3.853l67.492,67.497c0.568,-0.797 1.147,-1.602 1.69,-2.381l40.076,40.074c-0.779,0.55 -1.584,1.129 -2.381,1.697l24.958,24.964c0.611,-0.932 1.223,-1.868 1.813,-2.793l58.352,58.356c-0.925,0.594 -1.86,1.206 -2.796,1.814l7.155,7.156l12.898,-0l-181.976,-181.995c-1.391,0.696 -2.775,1.38 -4.177,2.105" style="fill:#c30a0f;fill-rule:nonzero;"/><path d="M311.673,290.201l-101.396,-101.406c0.131,-1.18 0.182,-2.294 0.233,-3.401l104.568,104.577c-1.111,0.048 -2.221,0.099 -3.405,0.23m-14.226,3.124l-90.313,-90.338c0.328,-1.063 0.623,-2.105 0.903,-3.132l92.552,92.567c-1.03,0.281 -2.079,0.579 -3.142,0.903m-12.749,4.582l-82.159,-82.177c0.451,-1.093 0.837,-2.131 1.249,-3.19l84.107,84.129c-1.059,0.411 -2.101,0.794 -3.197,1.238m-11.943,5.393l-75.602,-75.618c0.539,-1.118 1.049,-2.203 1.559,-3.288l77.331,77.348c-1.085,0.506 -2.181,1.012 -3.288,1.558m-11.463,5.871l-70.012,-70.032c0.608,-1.136 1.249,-2.298 1.831,-3.408l71.593,71.604c-1.118,0.587 -2.276,1.224 -3.412,1.836m-127.713,-145.734c0.364,-0.95 0.655,-1.828 0.932,-2.705l58.531,58.527c-0.87,0.28 -1.748,0.568 -2.705,0.928l-56.758,-56.75Zm44.978,62.319l-50.546,-50.559c0.485,-0.903 0.943,-1.777 1.388,-2.644l51.809,51.808c-0.871,0.444 -1.748,0.91 -2.651,1.395m-0.484,-98.602c-1.475,-0.313 -2.946,-0.626 -4.494,-0.856l-126.362,-126.297l-13.305,0l125.531,125.471c-1.289,0.022 -2.589,0.062 -3.907,0.131l-125.659,-125.602l-12.908,0l126.882,126.811c-1.282,0.193 -2.552,0.346 -3.863,0.572l-127.458,-127.383l-12.497,0l129.639,129.553c-1.293,0.31 -2.586,0.616 -3.893,0.962l-125.779,-125.77l-0,12.066l116.352,116.358c-1.3,0.405 -2.633,0.867 -3.951,1.297l-112.401,-112.419l-0,11.698l103.727,103.736c-1.376,0.507 -2.738,0.987 -4.129,1.523l-99.598,-99.614l-0,11.278l91.551,91.57c-1.402,0.579 -2.826,1.198 -4.243,1.809l-87.308,-87.319l-0,10.886l31.476,31.472c-0.787,-2.014 -1.632,-3.991 -2.495,-5.951l92.778,92.786c0.532,-0.867 1.027,-1.697 1.533,-2.539l47.079,47.082c-0.841,0.509 -1.671,1.005 -2.538,1.54l17.599,17.601c0.568,-0.994 1.118,-1.97 1.678,-2.95l66.662,66.681c-0.979,0.557 -1.955,1.111 -2.938,1.679l20.071,20.066l64.106,0l-0,-246.076l-32.055,0l0,32.605l-28.089,0l-0,-32.605l-32.689,0l0,-28.1l32.689,0l-0,-32.674l28.089,0l0,32.674l32.055,0l-0,-60.905l-284.156,0" style="fill:#c30a0f;fill-rule:nonzero;"/></g></g></g></g></svg>